<?xml version="1.0" encoding="UTF-8"?>
<!-- Generator: Adobe Illustrator 16.0.3, SVG Export Plug-In . SVG Version: 6.00 Build 0)  -->
<svg width="334.56" height="35.136" enable-background="new 0 0 960 560" version="1.1" viewBox="0 0 334.56 35.136" xml:space="preserve" xmlns="http://www.w3.org/2000/svg" xmlns:cc="http://creativecommons.org/ns#" xmlns:dc="http://purl.org/dc/elements/1.1/" xmlns:rdf="http://www.w3.org/1999/02/22-rdf-syntax-ns#"><metadata><rdf:RDF><cc:Work rdf:about=""><dc:format>image/svg+xml</dc:format><dc:type rdf:resource="http://purl.org/dc/dcmitype/StillImage"/><dc:title/></cc:Work></rdf:RDF></metadata>
<g transform="translate(-141.39 -85.247)" fill="#fff">
	<path d="m150.51 118.15c-2.849-1.488-5.081-3.568-6.696-6.24-1.616-2.671-2.424-5.704-2.424-9.096s0.808-6.424 2.424-9.096c1.616-2.671 3.848-4.752 6.696-6.24s6.048-2.232 9.6-2.232c3.264 0 6.176 0.576 8.736 1.728s4.671 2.816 6.336 4.992l-7.152 6.384c-2.081-2.624-4.529-3.936-7.344-3.936-2.369 0-4.272 0.761-5.712 2.28-1.44 1.52-2.16 3.56-2.16 6.12 0 2.561 0.72 4.6 2.16 6.12 1.44 1.521 3.343 2.28 5.712 2.28 2.815 0 5.264-1.312 7.344-3.936l7.152 6.384c-1.665 2.177-3.776 3.84-6.336 4.992-2.561 1.152-5.472 1.728-8.736 1.728-3.552 0-6.752-0.744-9.6-2.232z"/>
	<path d="m184.64 118.13c-2.88-1.504-5.136-3.592-6.768-6.264-1.632-2.671-2.448-5.688-2.448-9.048s0.816-6.376 2.448-9.048c1.632-2.671 3.888-4.759 6.768-6.264 2.88-1.504 6.127-2.256 9.744-2.256 3.616 0 6.864 0.752 9.744 2.256s5.136 3.592 6.768 6.264 2.448 5.688 2.448 9.048-0.816 6.376-2.448 9.048-3.888 4.76-6.768 6.264c-2.88 1.503-6.128 2.256-9.744 2.256s-6.864-0.752-9.744-2.256zm13.56-7.944c1.136-0.688 2.04-1.664 2.712-2.928s1.008-2.744 1.008-4.44-0.336-3.176-1.008-4.44-1.576-2.239-2.712-2.928c-1.136-0.688-2.408-1.032-3.816-1.032-1.409 0-2.681 0.344-3.816 1.032-1.136 0.688-2.04 1.664-2.712 2.928-0.672 1.265-1.008 2.745-1.008 4.44 0 1.696 0.336 3.176 1.008 4.44s1.576 2.24 2.712 2.928c1.135 0.688 2.407 1.032 3.816 1.032 1.408 0 2.68-0.343 3.816-1.032z"/>
	<path d="m245.55 119.62-0.096-15.312-7.296 12.288h-4.992l-7.296-11.76v14.784h-10.32v-33.6h9.312l10.944 17.904 10.656-17.904h9.312l0.096 33.6z"/>
	<path d="m283.71 87.551c2.304 1.024 4.08 2.496 5.328 4.416s1.872 4.16 1.872 6.72c0 2.561-0.624 4.8-1.872 6.72s-3.024 3.392-5.328 4.416-5.008 1.536-8.112 1.536h-4.848v8.256h-11.328v-33.6h16.176c3.104 0 5.808 0.512 8.112 1.536zm-5.376 14.04c0.768-0.688 1.152-1.656 1.152-2.904s-0.384-2.215-1.152-2.904c-0.768-0.688-1.92-1.032-3.456-1.032h-4.128v7.872h4.128c1.536 0 2.688-0.343 3.456-1.032z"/>
	<path d="m298.16 116.21c-2.88-2.784-4.32-6.688-4.32-11.712v-18.48h11.328v18.144c0 2.464 0.439 4.256 1.32 5.376 0.879 1.121 2.151 1.68 3.816 1.68 1.664 0 2.936-0.56 3.816-1.68s1.32-2.912 1.32-5.376v-18.144h11.136v18.48c0 5.024-1.44 8.928-4.32 11.712s-6.896 4.176-12.048 4.176-9.168-1.392-12.048-4.176z"/>
	<path d="m338.58 118.15c-2.849-1.488-5.081-3.568-6.696-6.24-1.616-2.671-2.424-5.704-2.424-9.096s0.808-6.424 2.424-9.096c1.616-2.671 3.848-4.752 6.696-6.24s6.048-2.232 9.6-2.232c3.264 0 6.176 0.576 8.736 1.728s4.671 2.816 6.336 4.992l-7.152 6.384c-2.081-2.624-4.529-3.936-7.344-3.936-2.369 0-4.272 0.761-5.712 2.28-1.44 1.52-2.16 3.56-2.16 6.12 0 2.561 0.72 4.6 2.16 6.12 1.44 1.521 3.343 2.28 5.712 2.28 2.815 0 5.264-1.312 7.344-3.936l7.152 6.384c-1.665 2.177-3.776 3.84-6.336 4.992-2.561 1.152-5.472 1.728-8.736 1.728-3.552 0-6.752-0.744-9.6-2.232z"/>
	<path d="m398.67 86.015v33.6h-11.328v-12.384h-10.464v12.384h-11.328v-33.6h11.328v11.904h10.464v-11.904z"/>
	<path d="m427.04 113.76h-12.768l-2.256 5.856h-11.52l14.688-33.6h11.136l14.688 33.6h-11.712zm-3.12-8.16-3.264-8.448-3.264 8.448z"/>
	<path d="m475.95 86.015v33.6h-9.312l-12.768-15.264v15.264h-11.04v-33.6h9.312l12.768 15.264v-15.264z"/>
</g>
</svg>
