<?xml version="1.0" encoding="UTF-8"?>
<svg width="183" height="89.048" fill="none" version="1.1" viewBox="0 0 183 89.048" xmlns="http://www.w3.org/2000/svg" xmlns:cc="http://creativecommons.org/ns#" xmlns:dc="http://purl.org/dc/elements/1.1/" xmlns:rdf="http://www.w3.org/1999/02/22-rdf-syntax-ns#">
 <metadata>
  <rdf:RDF>
   <cc:Work rdf:about="">
    <dc:format>image/svg+xml</dc:format>
    <dc:type rdf:resource="http://purl.org/dc/dcmitype/StillImage"/>
    <dc:title/>
   </cc:Work>
  </rdf:RDF>
 </metadata>
 <rect x="92" y="6" width="42" height="39" fill="#00587a"/>
 <path d="m140.41 0-50.808 0.048591v54.624l50.773-3.9703zm-25.178 9.2381c0.921-5e-5 1.798 0.18591 2.596 0.52307 0.798 0.33717 1.517 0.82477 2.12 1.4278 0.604 0.6029 1.092 1.3222 1.429 2.1194 0.338 0.7972 0.525 1.6725 0.525 2.5925l-6.67 0.0015h6.67c0 0.9201-0.187 1.7967-0.525 2.5939-0.337 0.7972-0.825 1.515-1.429 2.118-0.603 0.6029-1.322 1.0905-2.12 1.4277s-1.675 0.5245-2.596 0.5245c-0.921 1e-4 -1.799-0.1873-2.596-0.5245-0.798-0.3372-1.517-0.8248-2.12-1.4277-0.604-0.603-1.092-1.3208-1.43-2.118-0.337-0.7972-0.524-1.6738-0.525-2.5939 0-0.9201 0.187-1.7967 0.524-2.5939 0.338-0.7973 0.827-1.515 1.431-2.118 0.603-0.603 1.322-1.0919 2.119-1.4291 0.798-0.33724 1.676-0.52317 2.597-0.52321zm-12.253 9.1619c0.446 0 0.871 0.0907 1.256 0.253 0.386 0.1623 0.732 0.3967 1.023 0.6874s0.526 0.6368 0.688 1.0219c0.163 0.385 0.253 0.8093 0.253 1.2547v18.695c0 0.4455-0.09 0.8698-0.253 1.2548-0.162 0.385-0.397 0.7312-0.688 1.0219-0.291 0.2906-0.637 0.5265-1.023 0.6888-0.385 0.1623-0.81 0.2515-1.256 0.2515s-0.869-0.0892-1.254-0.2515c-0.386-0.1623-0.732-0.3982-1.023-0.6888-0.291-0.2907-0.527-0.6369-0.69-1.0219-0.162-0.385-0.2513-0.8094-0.2513-1.2548v-18.695c0-0.4454 0.0893-0.8697 0.2513-1.2547 0.163-0.3851 0.399-0.7312 0.69-1.0219s0.637-0.5251 1.023-0.6874c0.385-0.1623 0.808-0.253 1.254-0.253zm24.39 0c0.446 0 0.871 0.0907 1.256 0.253 0.386 0.1623 0.732 0.3967 1.023 0.6874s0.526 0.6368 0.688 1.0219c0.163 0.385 0.252 0.8093 0.252 1.2547v18.695c0 0.4455-0.089 0.8698-0.252 1.2548-0.162 0.385-0.397 0.7312-0.688 1.0219-0.291 0.2906-0.637 0.5265-1.023 0.6888-0.385 0.1623-0.81 0.2515-1.256 0.2515s-0.87-0.0892-1.256-0.2515c-0.385-0.1623-0.731-0.3982-1.022-0.6888-0.291-0.2907-0.526-0.6369-0.688-1.0219-0.163-0.385-0.254-0.8094-0.254-1.2548v-18.695c0-0.4454 0.091-0.8697 0.254-1.2547 0.162-0.3851 0.397-0.7312 0.688-1.0219s0.637-0.5251 1.022-0.6874c0.386-0.1623 0.811-0.253 1.256-0.253z" fill="#fff"/>
 <path d="m42.289 7.3474v46.421s7.8214-12.582 23.075-12.582c17.237 0 24.238 13.486 24.238 13.486v-54.624c-15.775 2.3898-31.544 4.8579-47.314 7.2988z" fill="#fff" fill-opacity=".99645"/>
 <path d="m154.15 20.905c-9.456 0.2585-9.983 4.5841-10.674 5.1094 0.138 6.8997 0.123 14.167 0.122 27.778l-54.42 4.1567c-4.8639-8.3966-13.832-13.575-23.542-13.594-9.5155 0.0143-18.334 4.9842-23.269 13.112-4.4431-5.9162-11.412-9.4012-18.815-9.41-13.01 8e-4 -23.556 10.538-23.555 23.536 0.010838 6.6557 2.8419 12.996 7.7921 17.45h132.05v0.0044l14.685-0.0029c14.389-8.6905 28.645-16.16 28.4-38.322-0.23169-16.35-14.676-30.172-28.768-29.818z" fill="#00587a"/>
 <path d="m42.289 7.3476v46.421s7.8214-12.582 23.075-12.582c17.237 0 24.238 13.486 24.238 13.486v-54.624c-15.775 2.3898-31.544 4.8579-47.314 7.2988z" fill="#000" fill-opacity=".026667"/>
</svg>
