<?xml version="1.0" encoding="UTF-8"?>
<!-- Created with Inkscape (http://www.inkscape.org/) -->
<svg width="349.86" height="121.63" version="1.1" viewBox="0 0 349.86 121.63" xmlns="http://www.w3.org/2000/svg" xmlns:cc="http://creativecommons.org/ns#" xmlns:dc="http://purl.org/dc/elements/1.1/" xmlns:rdf="http://www.w3.org/1999/02/22-rdf-syntax-ns#">
 <metadata>
  <rdf:RDF>
   <cc:Work rdf:about="">
    <dc:format>image/svg+xml</dc:format>
    <dc:type rdf:resource="http://purl.org/dc/dcmitype/StillImage"/>
    <dc:title/>
   </cc:Work>
  </rdf:RDF>
 </metadata>
 <g transform="translate(99.998,4e-4)">
  <g transform="translate(.39659 .025111)">
   <path d="m121.95-0.025111v88.799l68.575-5.5994v-83.2z" fill="#fff"/>
   <rect x="135.82" y="25.055" width="8.7908" height="34.341" ry="4.3954"/>
   <rect x="169.12" y="25.055" width="8.7908" height="34.341" ry="4.3954"/>
   <path d="m166.05 21.64a9.107 9.107 0 0 1-9.1068 9.107 9.107 9.107 0 0 1-9.1072-9.1067 9.107 9.107 0 0 1 9.1065-9.1073 9.107 9.107 0 0 1 9.1075 9.1064l-9.107 6.36e-4z" fill="#f10418"/>
  </g>
  <path d="m122.06 0.71456-64.279 11.605v76.15h64.6v-87.756z" fill="#e4e4e4"/>
  <path d="m209.85 28.503c-12.911 0.35325-17.735 6.5367-18.923 7.7927 2e-3 0.2586 4e-4 19.19 0 37.792l-69.162 5.0416a37.222 37.222 0 0 0-32.143-18.578 37.222 37.222 0 0 0-31.77 17.92 32.163 32.163 0 0 0-25.689-12.86 32.163 32.163 0 0 0-32.161 32.165 32.163 32.163 0 0 0 10.639 23.847h180.29v6e-3l20.05-4e-3s17.102-5.9221 31.299-25.08c8.9019-12.012 7.5393-18.369 7.4765-27.291-0.0628-8.9226-4.1857-18.431-5.1998-20.014-2.738-4.2757-11.675-17.235-28.661-20.499-2.1874-0.21885-4.1972-0.28763-6.0417-0.23716z" fill="#f10418"/>
 </g>
 <path id="circ" d="m156.03 95.564a25.588 25.588 0 0 1-25.587 25.588 25.588 25.588 0 0 1-25.588-25.587 25.588 25.588 0 0 1 25.586-25.589 25.588 25.588 0 0 1 25.589 25.586l-25.588 2e-3z" fill="#f10418"/>
</svg>
