<?xml version="1.0" encoding="UTF-8"?>
<!-- Created with Inkscape (http://www.inkscape.org/) -->
<svg width="926.23" height="926.23" version="1.1" viewBox="0 0 926.23 926.23" xmlns="http://www.w3.org/2000/svg" xmlns:cc="http://creativecommons.org/ns#" xmlns:dc="http://purl.org/dc/elements/1.1/" xmlns:rdf="http://www.w3.org/1999/02/22-rdf-syntax-ns#">
 <metadata>
  <rdf:RDF>
   <cc:Work rdf:about="">
    <dc:format>image/svg+xml</dc:format>
    <dc:type rdf:resource="http://purl.org/dc/dcmitype/StillImage"/>
    <dc:title/>
   </cc:Work>
  </rdf:RDF>
 </metadata>
 <path d="m854.31 753.48c-0.2953-0.33539-0.4-2.3847-0.4-7.8278v-7.3735h35.703c30.516 0 35.769 0.0664 36.16 0.45715 0.3697 0.36976 0.4571 1.8682 0.4571 7.84v7.3828l-35.76-0.0122c-30.476-0.0106-35.819-0.0793-36.16-0.4665zm-811.2-18.744c-3.5448-0.34279-7.3233-1.1356-10.763-2.2584-14.317-4.674-26.254-16.614-30.869-30.877-1.1032-3.41-1.4637-7.5444-1.4753-16.922-0.0117-9.3794 0.47448-14.36 1.7492-17.92 2.367-6.6105 5.9793-12.442 10.877-17.559 8.5389-8.9217 18.611-13.933 30.652-15.251 4.532-0.49603 13.876-0.24016 17.828 0.48822 14.564 2.6841 26.962 12.036 33.59 25.336 2.1172 4.2487 4.9724 12.578 5.2101 15.2 0.15193 1.6754 0.10745 1.8664-0.43523 1.8684-0.33244 0-6.9404 0.43222-14.684 0.95779s-14.656 0.95501-15.36 0.9543h-1.28l-0.8986-2.3975c-1.1096-2.9605-3.5696-6.694-5.6329-8.5492-7.1758-6.4516-18.396-5.9233-25.468 1.1994-3.6325 3.658-5.5123 7.5405-6.2335 12.874-1.4286 10.566 5.529 20.862 15.514 22.959 2.8902 0.60678 5.045 0.60163 8.0513-0.0195 7.6172-1.5733 12.553-6.6486 14.701-15.115 0.42218-1.6643 0.7676-3.5115 0.7676-4.1049 0-1.0773 2e-3 -1.0789 1.52-1.0542 10.04 0.16346 29.522 0.8304 29.709 1.017 0.85486 0.85536-2.1431 14.014-4.5133 19.81-4.5594 11.149-12.118 19.663-21.758 24.509-8.3906 4.2176-19.42 5.9571-30.797 4.8571zm107.63-0.01c-8.341-0.87927-16.25-3.8572-23.136-8.711-3.6714-2.588-9.6211-8.5658-12.323-12.381-3.9719-5.6092-6.8364-12.428-8.1318-19.356-0.81333-4.35-0.83817-15.594-0.0438-19.84 1.2932-6.9114 3.8395-13.166 7.6506-18.793 2.8878-4.2637 9.4091-10.704 13.775-13.605 9.4778-6.2966 18.572-8.7001 31.428-8.3068 8.3115 0.25427 13.84 1.5793 20.351 4.8776 11.321 5.7348 21.049 16.872 24.953 28.565 1.9998 5.9909 2.3822 8.749 2.3822 17.183 0 6.7796-0.085 8.0739-0.72534 11.04-2.1884 10.138-6.1998 17.406-13.785 24.977-6.2175 6.2061-12.168 9.9613-19.394 12.238-6.8325 2.153-15.269 2.9279-23.002 2.1128zm10.17-29.885c3.7224-0.78867 6.705-2.4858 9.8266-5.5917 2.2034-2.1923 3.0081-3.2682 4.0768-5.4514 1.7088-3.4906 2.3137-5.8944 2.3354-9.28 0.0327-5.1074-1.6639-9.8315-4.9607-13.813-5.3235-6.429-13.437-8.9515-20.719-6.4415-3.4278 1.1815-5.7106 2.6987-8.5362 5.6734-2.5024 2.6344-4.4983 6.2629-5.3778 9.777-0.71327 2.8498-0.47906 8.0272 0.49236 10.884 2.3222 6.8294 8.0946 12.314 14.813 14.074 2.823 0.73962 5.128 0.78804 8.0497 0.16903zm280.52 29.876c-8.2611-0.95606-15.55-4.6264-19.975-10.059-2.7708-3.4015-4.9328-7.7513-6.1137-12.3-1.5573-5.9991-1.5214-5.0926-1.6563-41.84l-0.127-34.64h30.1l0.086 32.409 0.086 32.409 0.8068 1.5913c0.63 1.2424 1.1391 1.7568 2.3225 2.3464 2.0184 1.0056 3.4842 0.74922 5.0347-0.88067 2.1579-2.2685 2.0457-0.40573 2.1563-35.794l0.1002-32.08h29.74v33.208c0 21.018-0.122 34.204-0.3325 35.92-0.4696 3.8297-1.7057 8.272-3.147 11.31-4.1366 8.719-11.964 15.074-21.48 17.44-4.9574 1.2325-11.952 1.6143-17.6 0.96067zm97.76 0.14198c-12.751-1.1073-23.079-5.949-31.71-14.866-6.5684-6.7858-10.601-14.419-12.655-23.956-0.6373-2.9581-0.7257-4.2978-0.7392-11.2-0.017-8.6596 0.4217-11.965 2.3369-17.608 4.1067-12.1 12.847-22.185 24.368-28.117 7.6662-3.9473 14.576-5.4817 24.632-5.4699 12.081 0.0144 21.487 2.9252 30.142 9.3286 7.9894 5.9112 13.789 14.34 17.355 25.226 1.401 4.2759 2.3685 8.1753 2.0937 8.4384-0.1485 0.14218-29.105 2.1279-30.972 2.1239-0.8399-3e-3 -1.11-0.15703-1.2565-0.72228-0.1026-0.396-0.8884-2.1236-1.746-3.839-3.5715-7.1431-9.3059-10.905-16.568-10.868-4.5611 0.023-7.9308 1.1794-11.705 4.0166-8.0084 6.02-10.528 18.248-5.6658 27.5 1.7176 3.2686 5.2677 6.7674 8.4521 8.3299 9.6638 4.7418 20.921 1.1624 25.472-8.0993 1.2062-2.4547 2.2717-6.0162 2.8133-9.4036l0.1989-1.2436 4.6973 0.1999c2.5835 0.10996 9.0893 0.28013 14.457 0.37818 5.368 0.0981 10.248 0.25405 10.845 0.34666l1.085 0.16841-0.199 2.355c-0.6996 8.2764-4.8258 20.127-9.3848 26.955-7.825 11.718-19.525 18.472-34.506 19.919-3.0376 0.29337-9.0654 0.34777-11.84 0.10681zm-321.36-40.501 0.0928-38.16 0.73071-2.5196c3.0118-10.385 10.32-17.361 20.36-19.433 3.7068-0.76502 10.099-0.8113 13.552-0.0981 5.9383 1.2266 10.934 4.4769 14.711 9.571 0.78295 1.056 1.4849 1.8874 1.5598 1.8474 0.075-0.0399 0.99131-1.1354 2.0363-2.4344 3.5-4.3508 8.2308-7.4885 13.121-8.703 2.8109-0.69802 11.032-0.98176 14.358-0.49552 11.154 1.631 17.909 8.5197 20.743 21.155 0.48138 2.1459 0.54786 6.2356 0.64876 39.911l0.11241 37.52h-29.763l-0.0899-33.2c-0.0821-30.321-0.13666-33.303-0.62885-34.389-1.0466-2.3084-3.4517-2.0301-4.7411 0.54861l-0.8 1.6-0.1746 65.44h-29.745l-2e-3 -31.92c-9.6e-4 -19.035-0.1268-32.683-0.3114-33.81-0.34742-2.1215-1.2767-3.3898-2.4836-3.3898-1.2566 0-2.0241 0.60976-2.7533 2.1874l-0.68983 1.4926-0.1746 65.44h-29.763zm115.77 5.12c0-34.018 0.0738-36.301 1.3147-41.2 1.3426-5.3006 5.3389-11.712 9.5088-15.256 7.4497-6.3311 15.957-9.3838 26.15-9.3838 10.773 0 19.1 3.3931 25.827 10.524 6.6483 7.0476 9.6242 15.689 9.0766 26.356-0.445 8.6678-2.9215 14.965-7.995 20.329-6.0625 6.4096-13.825 9.0203-26.843 9.0281l-4.4 3e-3v-26.482l2.2345-0.33165c3.0249-0.44896 4.7715-1.4486 5.7062-3.2657 1.24-2.4108 0.6376-4.8218-1.6272-6.5128-1.0556-0.78812-4.0162-1.0811-5.3485-0.52931-1.5642 0.64794-3.0914 2.5996-3.4905 4.4606-0.2459 1.1466-0.3545 11.404-0.3545 33.477v31.824h-29.76v-33.04zm273.28-15.28v-48.32h29.76v33.92h8v26.88h-8v35.84h-29.76zm40.96 0v-48.32h29.76v96.64h-29.76zm45.442 15.12c0-35.454 0.03-36.189 1.6123-41.963 2.7917-10.189 9.9073-17.967 19.536-21.355 4.3411-1.5274 7.7229-2.0783 13.92-2.2676 9.3428-0.28531 14.69 0.6184 20.596 3.4806 2.9397 1.4247 3.7014 1.978 6.255 4.5437 3.2933 3.3088 5.2182 6.5917 6.6853 11.401 1.9706 6.4609 1.8971 4.87 2.0219 43.76l0.1142 35.6h-29.784l-0.01-30.64c0-18.335-0.1326-31.513-0.3207-32.814-0.1729-1.1958-0.5884-2.7078-0.9232-3.36-1.5917-3.1002-6.05-3.1536-8.1677-0.0978-1.3197 1.9043-1.7702 4.8544-1.7765 11.632l-0.01 6h8.32v26.88h-8.32v22.4h-29.76v-33.2zm84.479-0.64c0-37.173-0.01-36.936 1.9454-42.771 3.5135-10.487 11.853-18.258 22.523-20.987 3.6476-0.9329 6.8687-1.2827 11.793-1.2806 9.778 4e-3 16.857 2.0922 22.446 6.6212 5.2571 4.2602 9.0496 11.097 10.571 19.056 0.9179 4.8015 1.1034 11.932 1.1119 42.721l0.01 30.48h-30.065l-0.174-64.48-0.8-1.5834c-1.296-2.565-3.3726-3.6428-5.5658-2.8888-1.5958 0.54857-2.3917 1.3026-3.2007 3.0322-0.6688 1.4298-0.6742 1.667-0.7623 33.68l-0.089 32.24h-29.742v-33.84zm-723.37-118.44c-16.931-15.394-29.3-37.829-33.716-61.157-1.8432-9.7376-2.3483-23.719-1.2024-33.28 3.0801-25.7 14.827-48.866 33.545-66.157 16.719-15.443 37.283-24.78 59.782-27.143 6.983-0.73337 19.1-0.50438 25.76 0.48683 25.589 3.8084 49.805 17.821 66.356 38.398l2.604 3.2373v-224.53l105.2-18.62c57.86-10.241 106.42-18.708 107.92-18.814 1.496-0.10688 54.533-0.25548 117.86-0.33023 99.793-0.1178 115.2-0.0746 115.6 0.32384 0.3962 0.39628 0.4597 8.4336 0.4597 58.211v57.752l3.12-3.1056c3.6164-3.5997 7.124-6.0263 12.263-8.4834 12.321-5.8914 28.194-8.8678 47.337-8.876 13.491-6e-3 18.471 0.704 28.407 4.0485 26.011 8.7558 46.769 21.056 63.22 37.461 24.698 24.629 37.993 57.088 40.52 98.926 0.4266 7.0618 0.4293 22.728 0 27.018-3.721 37.592-28.278 74.991-72.502 110.42-15.969 12.792-36.608 26.426-54.57 36.047l-3.0796 1.6496h-661.05l-3.831-3.4831zm431.93-213.79c2.1425-0.80529 4.9142-3.1873 6.1374-5.2745 1.8722-3.1947 1.8026-1.1906 1.7093-49.178l-0.086-43.987-1.1951-2.418c-2.1337-4.317-6.2993-7.1393-10.481-7.1014-4.3584 0.0395-8.5362 2.826-10.638 7.0954l-1.0456 2.124v90.253l0.9911 2.08c1.1286 2.3683 2.9125 4.3415 5.066 5.6035 3.1579 1.8507 6.0956 2.0978 9.5418 0.80248zm112 0c2.1425-0.80529 4.9143-3.1873 6.1374-5.2745 1.8722-3.1947 1.8026-1.1906 1.7093-49.178l-0.086-43.987-1.1951-2.418c-2.1337-4.317-6.2993-7.1393-10.481-7.1014-4.3584 0.0395-8.5362 2.826-10.638 7.0954l-1.0456 2.124v90.253l0.9911 2.08c1.1286 2.3683 2.9125 4.3415 5.066 5.6035 3.1579 1.8507 6.0956 2.0978 9.5418 0.80248zm-49.519-96.172c11.886-3.4363 20.248-14.047 20.423-25.914 0.1863-12.646-9.0425-24.131-21.751-27.068-2.5374-0.58634-3.6108-0.67-6.6105-0.51522-4.3231 0.22306-6.4944 0.77579-10.35 2.6348-7.5515 3.6408-13.242 10.711-15.165 18.842-1.9989 8.4501 0.571 17.494 6.8497 24.104 7.3187 7.7046 17.184 10.64 26.605 7.9165z" fill="#fefefe" stroke-width=".32"/>
</svg>
