<?xml version="1.0" encoding="utf-8"?>
<!-- Generator: Adobe Illustrator 16.0.3, SVG Export Plug-In . SVG Version: 6.00 Build 0)  -->
<!DOCTYPE svg PUBLIC "-//W3C//DTD SVG 1.1//EN" "http://www.w3.org/Graphics/SVG/1.1/DTD/svg11.dtd">
<svg version="1.1" xmlns="http://www.w3.org/2000/svg" xmlns:xlink="http://www.w3.org/1999/xlink" x="0px" y="0px"
	 width="492.627px" height="397.408px" viewBox="0 0 492.627 397.408" enable-background="new 0 0 492.627 397.408"
	 xml:space="preserve">
<g id="Capa_1">
	<linearGradient id="SVGID_1_" gradientUnits="userSpaceOnUse" x1="123.1211" y1="123.1206" x2="329.5092" y2="329.5087">
		<stop  offset="0" style="stop-color:#FFD4FE"/>
		<stop  offset="1" style="stop-color:#D398FF"/>
	</linearGradient>
	<circle fill="url(#SVGID_1_)" cx="198.704" cy="198.704" r="198.704"/>
</g>
<g id="Capa_2">
	<line fill="#662D91" x1="387.582" y1="24.72" x2="353.525" y2="66.563"/>
	<line fill="#662D91" x1="421.172" y1="61.731" x2="467.428" y2="66.99"/>
	<line fill="#662D91" x1="405.299" y1="80.776" x2="406.001" y2="129.988"/>
	
		<linearGradient id="SVGID_2_" gradientUnits="userSpaceOnUse" x1="349.3857" y1="81.0059" x2="369.6035" y2="81.0059" gradientTransform="matrix(0.749 0.6626 -0.6626 0.749 154.9238 -253.791)">
		<stop  offset="0" style="stop-color:#FFD4FE"/>
		<stop  offset="1" style="stop-color:#D398FF"/>
	</linearGradient>
	<polygon fill="url(#SVGID_2_)" points="356.62,46.757 369.273,31.209 384.36,43.418 371.709,58.968 	"/>
	
		<linearGradient id="SVGID_3_" gradientUnits="userSpaceOnUse" x1="415.5771" y1="47.0264" x2="439.3506" y2="47.0264" gradientTransform="matrix(0.749 0.6626 -0.6626 0.749 154.9238 -253.791)">
		<stop  offset="0" style="stop-color:#FFD4FE"/>
		<stop  offset="1" style="stop-color:#D398FF"/>
	</linearGradient>
	<polygon fill="url(#SVGID_3_)" points="451.256,74.317 434.068,72.365 436.569,55.04 453.757,56.99 	"/>
	
		<linearGradient id="SVGID_4_" gradientUnits="userSpaceOnUse" x1="412.5684" y1="102.8652" x2="437.9736" y2="102.8652" gradientTransform="matrix(0.749 0.6626 -0.6626 0.749 154.9238 -253.791)">
		<stop  offset="0" style="stop-color:#FFD4FE"/>
		<stop  offset="1" style="stop-color:#D398FF"/>
	</linearGradient>
	<polygon fill="url(#SVGID_4_)" points="396.283,114.613 396.022,96.327 414.25,95.471 414.521,113.76 	"/>
	<path fill="#41007A" d="M370.794,46.795c0.983-0.12,1.711-0.996,1.627-1.957c-0.085-0.962-0.952-1.645-1.934-1.525
		c-0.984,0.119-1.712,0.995-1.628,1.956C368.945,46.231,369.812,46.914,370.794,46.795z"/>
	<path fill="#41007A" d="M445.057,63.616c-0.521-0.682-1.498-0.803-2.179-0.27c-0.682,0.533-0.812,1.518-0.291,2.202
		c0.522,0.682,1.495,0.805,2.178,0.271C445.446,65.286,445.577,64.299,445.057,63.616z"/>
	<path fill="#41007A" d="M406.518,106.021c0.638-0.677,0.631-1.72-0.01-2.321c-0.642-0.604-1.677-0.542-2.314,0.14
		c-0.633,0.676-0.633,1.715,0.01,2.315C404.845,106.763,405.881,106.699,406.518,106.021z"/>
</g>
<g id="Capa_3">
	<ellipse opacity="0.3" fill="#FFFFFF" cx="331.403" cy="203.637" rx="161.224" ry="157.934"/>
</g>
</svg>
