<?xml version="1.0" encoding="utf-8"?>
<!-- Generator: Adobe Illustrator 16.0.3, SVG Export Plug-In . SVG Version: 6.00 Build 0)  -->
<!DOCTYPE svg PUBLIC "-//W3C//DTD SVG 1.1//EN" "http://www.w3.org/Graphics/SVG/1.1/DTD/svg11.dtd">
<svg version="1.1" id="Capa_1" xmlns="http://www.w3.org/2000/svg" xmlns:xlink="http://www.w3.org/1999/xlink" x="0px" y="0px"
	 width="192.107px" height="192.131px" viewBox="0 0 192.107 192.131" enable-background="new 0 0 192.107 192.131"
	 xml:space="preserve">
<g>
	<g>
		<g>
			<g>
				<g>
					<path fill="#EAC800" d="M192.107,95.704c0.007-0.089-0.042-0.277-0.1-0.229l0.015,0.332L192.107,95.704z"/>
					<path fill="#EAC800" d="M191.562,95.17c-0.047,0.169-0.086,0.461,0.018,0.753c0.02-0.325,0.062-0.198,0.074-0.583
						c0.059-0.048,0.133,0.086,0.144,0.208c0.008-0.087,0.114,0.056,0.111-0.154c-0.132-0.238-0.238-0.232-0.313-0.006
						C191.559,95.319,191.566,95.23,191.562,95.17z"/>
					<path fill="#EAC800" d="M185.222,95.386l0.043,0.037C185.252,95.402,185.237,95.391,185.222,95.386z"/>
					<path fill="#EAC800" d="M181.315,95.325c0.03-0.008,0.042-0.042,0.044-0.071C181.332,95.276,181.31,95.296,181.315,95.325z"/>
					<path fill="#EAC800" d="M180.651,94.968c0.017,0.009,0.026,0.015,0.039,0.021C180.676,94.959,180.661,94.943,180.651,94.968z"
						/>
					<path fill="#EAC800" d="M185.222,95.386l-0.11-0.099C185.11,95.396,185.169,95.365,185.222,95.386z"/>
					<path fill="#EAC800" d="M190.823,96.095c0.021-0.019,0.033-0.052,0.044-0.095c-0.017,0.017-0.031,0.032-0.049,0.043
						L190.823,96.095z"/>
					<path fill="#EAC800" d="M186.913,94.993l0.03-0.004c0.004-0.039,0.01-0.084,0.015-0.136L186.913,94.993z"/>
					<path fill="#EAC800" d="M188.214,94.81c-0.031-0.009-0.01,0.271-0.007,0.395c0.004-0.117,0.02-0.174,0.043-0.198
						C188.244,94.953,188.233,94.89,188.214,94.81z"/>
					<path fill="#EAC800" d="M190.349,95.017l0.03-0.044C190.37,94.985,190.359,95.001,190.349,95.017z"/>
					<path fill="#EAC800" d="M185.973,95.018c-0.005-0.042-0.013-0.078-0.02-0.1C185.956,94.953,185.963,94.986,185.973,95.018z"/>
					<path fill="#EAC800" d="M149.103,96.853c-0.003-0.021-0.005-0.033-0.008-0.049C149.092,96.832,149.093,96.853,149.103,96.853z"
						/>
					<polygon fill="#EAC800" points="147.347,95.744 147.365,95.726 147.338,95.57 					"/>
					<path fill="#EAC800" d="M179.442,94.585l0.006,0.005C179.48,94.559,179.462,94.564,179.442,94.585z"/>
					<path fill="#EAC800" d="M168.236,94.162c0.109,0.26-0.23,0.307-0.059,0.599C168.167,94.65,168.384,94.336,168.236,94.162z"/>
					<path fill="#EAC800" d="M190.782,96.064c-0.019,0.006-0.035,0.011-0.055,0.012C190.755,96.081,190.771,96.077,190.782,96.064z"
						/>
					<path fill="#EAC800" d="M168.178,94.761v0.002l0.018,0.027C168.188,94.779,168.184,94.771,168.178,94.761z"/>
					<path fill="#EAC800" d="M176.64,94.665c0.004,0.05,0.014,0.088,0.023,0.125C176.663,94.76,176.658,94.725,176.64,94.665z"/>
					<path fill="#EAC800" d="M178.716,95.138l-0.051-0.039C178.685,95.125,178.701,95.134,178.716,95.138z"/>
					<path fill="#EAC800" d="M175.535,95.01c-0.027-0.022-0.035-0.063-0.075-0.026c0.004,0.014,0.007,0.024,0.01,0.035
						C175.485,94.981,175.505,94.964,175.535,95.01z"/>
					<path fill="#EAC800" d="M174.401,94.949c0.008,0.021,0.013,0.039,0.019,0.058l0.037-0.012L174.401,94.949z"/>
					<path fill="#EAC800" d="M152.426,96.274c-0.032-0.076-0.055-0.161-0.075-0.246C152.387,96.226,152.231,96.314,152.426,96.274z"
						/>
					<path fill="#EAC800" d="M190.797,95.939c0.005,0.071,0.001,0.107-0.015,0.125c0.013-0.005,0.023-0.013,0.035-0.021
						C190.814,96.001,190.81,95.962,190.797,95.939z"/>
					<path fill="#EAC800" d="M175.372,97.222l-0.182-0.05C175.241,97.202,175.307,97.22,175.372,97.222z"/>
					<path fill="#EAC800" d="M160.454,96.033l-0.042,0.033C160.428,96.073,160.442,96.065,160.454,96.033z"/>
					<path fill="#EAC800" d="M174.647,97.187c-0.026-0.102-0.058-0.162-0.091-0.201c-0.009,0.021-0.019,0.039-0.025,0.07
						L174.647,97.187z"/>
					<path fill="#EAC800" d="M152.35,96.026v0.002V96.026z"/>
					<path fill="#EAC800" d="M151.266,96.817c0.167-0.01,0.036-0.367,0.046-0.583c0.188-0.126,0.124,0.26,0.213,0.44
						c0.112-0.111,0.171-0.459,0.267-0.455c0.014,0.06,0.034,0.08,0.021,0.158c0.103-0.307,0.39-0.058,0.508-0.442
						c0.016,0.031,0.023,0.062,0.029,0.089c-0.042-0.182-0.063-0.369-0.072-0.502c0.076-0.015,0.12-0.248,0.172-0.011
						c-0.048-0.002-0.043,0.096-0.058,0.173l0.07-0.113c0.103,0.337-0.099,0.131-0.074,0.387c0.143-0.13,0.299-0.436,0.427-0.352
						c0.054,0.335-0.267,0.145-0.083,0.428l-0.193-0.109c0.188,0.518-0.114-0.024,0.064,0.532c0.247,0.072,0.251-0.206,0.5-0.119
						c0.039-0.191-0.04-0.277-0.001-0.469c0.319-0.358,0.333,0.836,0.552,0.37c0.05-0.229,0.047-0.66,0.241-0.443l-0.036,0.387
						c0.235,0.024,0.1-0.559,0.36-0.315c-0.035,0.153-0.176,0.138-0.138,0.181c0.177,0.293,0.099-0.224,0.222-0.231l0.045,0.338
						c0.245-0.068,0.507-0.329,0.782-0.407c-0.011,0.102-0.054,0.211,0.015,0.311c0.34-0.197,0.746,0.013,1.086,0.209l0.122-0.295
						c0.03,0.003,0.06,0.131,0.027,0.189c0.134,0.109,0.003-0.186,0.063-0.303c0.074-0.021,0.103,0.167,0.058,0.256
						c0.225-0.252,0.652-0.546,0.9-0.235l-0.047,0.088c0.19,0.116,0.211-0.605,0.391-0.333l-0.034,0.052
						c0.413,0.115,0.875-0.144,1.187,0.307c0.066-0.421,0.407,0.197,0.443-0.392c0.231,0.297,0.163,0.401,0.491,0.604
						c0.088,0.029,0.141-0.365,0.253-0.424l-0.006,0.308l0.157-0.32l0.069,0.37l0.105-0.077c-0.04-0.019-0.083-0.14-0.075-0.229
						c0.166-0.136,0.388,0.223,0.386,0.38l0.391-0.249c-0.013,0.124-0.077,0.163-0.132,0.24c0.215-0.305,0.025,0.326,0.224,0.047
						c-0.022-0.071,0.021-0.183,0.025-0.245c0.087,0.19,0.299,0.202,0.459,0.131l-0.039,0.211c0.28,0.067,0.602-0.074,0.919-0.055
						c-0.108-0.104-0.065-0.471,0.029-0.502l0.021,0.327c0.069-0.198-0.093-0.127,0.044-0.368c0.117,0.043,0.063,0.374-0.012,0.477
						l0.149-0.106c0.004,0.097-0.032,0.147-0.048,0.271c0.069-0.199,0.231,0.338,0.336-0.009l0.003,0.097
						c0.317,0.019,0.467-0.091,0.728-0.09c0.021-0.28,0.119-0.211,0.21-0.434c0.188,0.102,0.386,0.336,0.616,0.327
						c0.17-0.129,0.063-0.235,0.146-0.396c-0.003,0.256,0.228,0.247,0.098,0.423c0.278-0.024,0.355-0.028,0.719-0.213
						c-0.03-0.107-0.07-0.156-0.044-0.242c0.066-0.038,0.139,0.117,0.121,0.239l-0.019,0.025c0.418-0.358,0.854,0.802,1.204,0.293
						l-0.021,0.025l0.345-0.254c0.146,0.055-0.104,0.185-0.004,0.352c0.38-0.401,0.549,0.102,0.857-0.162
						c0.169,0.77,0.796,0.004,1.063,0.507l-0.005-0.179c0.091-0.168,0.087,0.107,0.143,0.152c0.002-0.138-0.073-0.166-0.019-0.258
						c0.679-0.166,1.349,0.358,2.018,0.567c0.245,0.065,0.205-0.908,0.487-0.461l-0.11,0.323c0.526-0.357,1.026,0.08,1.542-0.223
						c-0.034,0.074-0.042,0.174-0.09,0.17c0.089,0.246,0.385,0.035,0.397-0.16c0.075,0.027,0.007,0.179,0.048,0.281
						c0.097,0.147,0.28-0.289,0.321-0.048c0.008,0.04-0.034,0.076-0.054,0.093c0.074-0.111,0.314,0.051,0.267-0.23
						c0.177,0.145,0.36-0.1,0.499,0.072c0.113-0.303,0.308,0.17,0.363-0.268c-0.039,0.451,0.306,0.381,0.434,0.174
						c-0.046,0.133,0.095,0.146,0.039,0.332c0.135,0,0.262-0.078,0.25-0.312c0.221,0.552,0.518-0.412,0.623,0.288
						c0.409-0.225,0.784-0.371,1.146-0.461c-0.03,0.451-0.396,0.027-0.4,0.5c0.349-0.172,0.557-0.541,0.891-0.428
						c0.085,0.063-0.057,0.194-0.089,0.271c0.348-0.179,0.658,0.056,0.967-0.183c-0.002,0.041-0.034,0.086-0.066,0.121
						c0.061-0.014,0.138,0.068,0.136-0.137l-0.06,0.055c-0.088-0.301,0.251-0.617,0.265-0.773c-0.114,0.585,0.294,0.154,0.118,0.895
						c0.04-0.039,0.092-0.135,0.085-0.271c0.058,0.041,0.074,0.121,0.013,0.275c0.216-0.106,0.145-0.326,0.337-0.317
						c-0.003,0.1-0.042,0.137-0.063,0.253c0.102-0.191,0.202-0.383,0.363-0.295c-0.011,0.061,0.009,0.138-0.04,0.135
						c0.28-0.025,0.481-0.501,0.787-0.315c-0.094,0.432,0.104,0.141,0.119,0.514l0.166-0.113l-0.065-0.18
						c0.146,0.004,0.272-0.269,0.397-0.148l-0.106,0.155l0.271-0.074l-0.154-0.14c0.146-0.194-0.018-0.472,0.176-0.371
						c-0.039,0.038,0.144,0.003,0.221,0.222v0.001c0.07-0.12,0.143-0.246,0.25-0.154c0.029,0.119-0.018,0.414,0.001,0.494
						c0.067-0.313,0.339-0.09,0.423-0.424c-0.028,0.078-0.025,0.274-0.017,0.314l0.056-0.254c0.068,0.08,0.078,0.119,0.07,0.277
						c0.203,0.043-0.073-0.474,0.17-0.271c-0.019,0.021-0.008,0.059-0.047,0.097c0.243,0.104,0.46-0.166,0.685-0.044
						c0.076,0.375-0.19,0.094-0.106,0.41c0.317-0.064,0.646-0.479,0.957-0.402l-0.06-0.039c0.021-0.532,0.24,0.25,0.386-0.008
						c-0.035,0.041-0.036,0.297-0.028,0.237c0.216,0.073,0.427-0.153,0.735-0.336l-0.03,0.138c0.131,0.115,0.332,0.053,0.471,0.107
						c0.031-0.138,0.109-0.12,0.05-0.315c0.47,0.757,0.757-0.458,1.173,0.143c-0.044,0.006-0.095,0.129-0.06,0.126l0.302-0.156
						c-0.045-0.228-0.054-0.135-0.135-0.308c0.026-0.141,0.104-0.255,0.183-0.263c-0.126,0.167,0.034,0.37,0.107,0.492
						c-0.018-0.069-0.003-0.149-0.016-0.221c0.2,0.393-0.017-0.465,0.23-0.212v0.122c0.077-0.07,0.138-0.237,0.229-0.212
						c0.064,0.262-0.074,0.133-0.059,0.353c0.125-0.028,0.195-0.529,0.337-0.275c-0.046,0.079-0.122,0.088-0.168,0.167
						c0.156,0.299,0.163,0.219,0.261,0.259l-0.01-0.006l0.229,0.12l-0.063-0.079c0.08-0.708,0.309-0.159,0.466-0.634
						c-0.153,0.45-0.004,0.252,0.017,0.554c0.063,0.078,0.159,0.163,0.146,0.25c0.071-0.253,0.193,0.173,0.291-0.195
						c0.02,0.096,0.109-0.001,0.118,0.244c0.121-0.095-0.053-0.163-0.058-0.288c0.156-0.358,0.526,0.327,0.754-0.171
						c0.223-0.226,0.22-0.558,0.423-0.756c0.101,0.142-0.01,0.361-0.01,0.361c0.146,0.122,0.237,0.081,0.338-0.048
						c-0.01,0.087,0.024,0.155,0.079,0.257c0.091-0.041,0.007-0.361,0.153-0.238c-0.003,0.11-0.003,0.287-0.03,0.401
						c0.099-0.106,0.179-0.304,0.278-0.409c0.061,0.163-0.025,0.266-0.049,0.381c0.118-0.096,0.313-0.206,0.306-0.477l-0.1-0.082
						c0.045-0.02,0.064,0.224,0.038,0.278c-0.076,0.226-0.178-0.066-0.2-0.162l0.072-0.075c-0.181-0.55-0.313,0.143-0.485,0.136
						l0.002-0.421l-0.113,0.368c-0.054-0.102-0.114-0.327-0.043-0.401c-0.149-0.184-0.081,0.163-0.218-0.048
						c-0.017-0.033-0.015-0.054-0.007-0.072l-0.096,0.141c0.009-0.09-0.063-0.288,0.016-0.239c-0.24-0.205-0.285,0.361-0.408,0.062
						l0.015-0.028c-0.266,0.185,0.017,0.307-0.148,0.696l-0.248-0.723l0.015,0.307c-0.031-0.006-0.094-0.02-0.099-0.143
						c-0.082,0.225,0.036,0.129-0.001,0.334c-0.179-0.251-0.376,0.19-0.47-0.293c-0.022,0.235,0.159,0.164,0.026,0.339
						c-0.108-0.515-0.165,0.106-0.325-0.118c0.008-0.272,0.146-0.143-0.012-0.369c-0.023,0.461-0.265-0.074-0.362,0.024
						c0.035,0.361-0.222,0.175-0.394,0.314c-0.001-0.123-0.366-0.164-0.55-0.277l-0.001-0.061c0.002,0.369-0.182,0.318-0.303,0.407
						c-0.015-0.219,0-0.308,0.061-0.413l-0.12,0.014c-0.018,0.12-0.05,0.186-0.123,0.236l0.006-0.276
						c-0.158,0.031-0.295,0.354-0.518,0.193c0.008,0.256,0.223,0.694,0.016,0.887c-0.021-0.137-0.046-0.372,0.008-0.435
						c-0.019,0.02-0.06,0.122-0.102,0.066l0.069-0.241c-0.103-0.093-0.034,0.201-0.112,0.184c-0.013-0.197-0.065-0.137-0.066-0.294
						c0.019-0.021,0.071,0.079,0.096-0.001c-0.088-0.029-0.199-0.142-0.244-0.289c0.017,0.111,0.021,0.265-0.042,0.294
						c-0.16,0.022-0.071-0.234-0.172-0.331c-0.03,0.139-0.142,0.002-0.125,0.297c-0.047,0.001-0.065-0.136-0.089-0.214
						c-0.074,0.134-0.386,0.057-0.273,0.366l0.023,0.02l-0.014,0.014h0.001h-0.001c-0.258,0.308-0.579-0.137-0.845,0.003
						l-0.004-0.099c-0.157,0.121-0.356,0.085-0.466,0.304c-0.048,0.002-0.12-0.174-0.104-0.292c-0.12,0.081-0.132,0.192-0.315,0.039
						c0.118-0.179-0.048-0.15,0.123-0.133c-0.164-0.078-0.204-0.23-0.369,0.044c0.052-0.253-0.13-0.317-0.204-0.241l0.117,0.18
						c-0.085,0.038-0.161,0.016-0.237-0.004l0.032-0.333c-0.336-0.401-0.579,0.695-0.842,0.021
						c-0.083,0.233,0.182,0.162,0.107,0.435c-0.152-0.043-0.316-0.519-0.363-0.52c-0.208-0.182-0.188,0.488-0.406,0.365
						c0.028,0.118,0.057,0.435-0.106,0.548c-0.151-0.042-0.188-0.496-0.093-0.592c0.036-0.01,0.054,0.027,0.053,0.067
						c0.05-0.043,0.112-0.095,0.053-0.223l-0.02,0.119c-0.076-0.12-0.284-0.105-0.234-0.3c-0.114,0.114-0.05,0.195,0.035,0.256
						c-0.193-0.17-0.304-0.002-0.503-0.115c0.031,0.065,0.062,0.205,0.028,0.204c-0.292-0.144-0.13,0.227-0.33,0.276
						c-0.112-0.184,0.044-0.431-0.158-0.284c-0.121-0.125-0.021-0.315,0.027-0.411c-0.185,0.225-0.339-0.158-0.441-0.202
						l0.098-0.094c-0.059,0.056-0.104,0.053-0.152,0.051l0.052,0.238c-0.056-0.042-0.104-0.044-0.101-0.143
						c-0.062,0.154,0.038,0.396-0.081,0.605c-0.073-0.122-0.231,0.125-0.252-0.191c0.234,0.112-0.021-0.317,0.181-0.363
						c-0.039,0.037-0.086,0.034-0.142-0.009c-0.008-0.035,0.009-0.065,0.023-0.083c-0.22-0.287-0.109,0.354-0.345,0.341
						c0.033-0.177-0.047-0.338-0.086-0.301c0.095,0.006,0.039,0.297-0.051,0.431c-0.147-0.142-0.166,0.099-0.245,0.081l0.089,0.067
						c-0.035,0.176-0.109,0.151-0.217,0.205c-0.005-0.138,0.098-0.093,0.062-0.155c-0.125,0.31-0.254-0.329-0.423-0.122
						c-0.07-0.122,0.003-0.333-0.061-0.416c-0.188,0.226-0.188-0.248-0.385-0.062c0.046,0.239,0.059,0.183-0.085,0.41l0.319-0.16
						l-0.214,0.342c0.096,0.005,0.206-0.146,0.262-0.104c-0.103,0.192-0.091,0.133-0.052,0.332
						c-0.118-0.361-0.267,0.205-0.409-0.045l0.026-0.59c-0.215-0.274-0.413,0.284-0.7,0.122l0.09,0.107
						c-0.05,0.232-0.183,0.024-0.281,0.115c0.018-0.197-0.039-0.271-0.074-0.396c-0.002,0.146-0.214-0.023-0.259,0.369l-0.119-0.266
						c-0.231-0.117-0.299,0.549-0.523,0.471c0.08-0.211-0.017-0.355,0.145-0.501c-0.076-0.006-0.144-0.045-0.15,0.092
						c-0.038-0.126-0.225,0.255-0.285,0.065c-0.037,0.085-0.059,0.291-0.144,0.271c-0.008-0.04,0.006-0.097,0.006-0.097
						c-0.006,0.097-0.143,0.126-0.078,0.348c-0.201-0.624-0.66,0.009-0.835-0.533c-0.17,0.056-0.375,0.106-0.526,0.111
						c0.014-0.059,0.006-0.098,0.033-0.076c-0.197-0.196-0.163,0.558-0.388,0.338c-0.103-0.326,0.137-0.164,0.067-0.29
						c0.009-0.65-0.292,0.07-0.428-0.319l0.042-0.035c-0.107-0.228-0.313,0.227-0.511,0.167c0,0,0.014-0.057,0.008-0.098
						c-0.158,0.322-0.424,0.415-0.623,0.495c0.078-0.25,0.097-0.129,0.078-0.389c-0.089,0.031-0.003,0.416-0.181,0.476
						c-0.046-0.143-0.161-0.273-0.159-0.549l0.164-0.003c-0.06-0.362-0.211-0.003-0.292-0.071l0.021-0.154
						c-0.252,0.032-0.283,0.424-0.548,0.376l0.02,0.12c-0.174,0.377-0.106-0.228-0.272,0.051l-0.017-0.397
						c-0.104,0.088-0.364,0.356-0.542,0.417c0.117-0.285,0.331-0.419,0.469-0.584c-0.096-0.01-0.326,0.006-0.392,0.196
						c0.042-0.035,0.098-0.128,0.132-0.064c-0.141,0.301-0.306,0.442-0.494,0.421c0.089-0.761-0.482-0.228-0.577-0.831
						c-0.357,0.258-0.66-0.169-1.058-0.152c0.098,0.604-0.115,0.009-0.136,0.621c-0.095,0.032-0.129,0.02-0.134-0.021l-0.251-0.384
						c-0.054-0.183,0.097-0.128,0.098-0.266c-0.196-0.062-0.064-0.265-0.187-0.437c0.012,0.22-0.093,0.308-0.201,0.216l0.142,0.293
						c-0.304,0.305-0.206-0.529-0.512-0.228l0.104-0.186c-0.153,0.103-0.535-0.042-0.711,0.437
						c-0.021-0.072-0.043-0.241,0.022-0.281c-0.343-0.097-0.809,0.472-1.059,0.152l0.035-0.147
						c-0.067,0.039-0.132,0.273-0.202,0.118c0.008-0.061,0.036-0.147,0.006-0.158c-0.037,0.049-0.188,0.25-0.271,0.158l0.085-0.164
						c-0.327-0.217-0.547,0.376-0.836,0.46c0.026-0.439-0.231-0.599-0.36-0.679l0.008-0.062c-0.393-0.082-0.695,0.33-1.069,0.484
						c-0.204-0.488-0.763-0.235-1.118-0.521c0.054,0.083-0.022,0.342-0.09,0.384c-0.083-0.093-0.25,0.294-0.221-0.109l0.031,0.009
						c-0.051-0.399-0.231-0.302-0.369-0.319l-0.042,0.526c-0.335-0.785-0.956,0.26-1.134-0.434c-0.092,0.13-0.199,0.126-0.289,0.256
						l0.011-0.283c-0.241-0.077-0.362-0.115-0.664-0.054l0.064-0.201c-0.171-0.022-0.226,0.812-0.381,0.826l-0.042-0.423
						c-0.294,0-0.592-0.378-0.886,0.013c0.005-0.063,0.014-0.185,0.063-0.202c-0.14-0.009-0.542-0.278-0.487,0.301
						c-0.006-0.377-0.307-0.032-0.463,0.136l0.021-0.279c-0.13,0.358-0.133,0.456-0.317,0.557c-0.045-0.036-0.042-0.222,0.018-0.152
						c-0.151-0.144-0.11,0.266-0.292,0.12l0.063-0.179c-0.153-0.02-0.14,0.076-0.219,0.285c-0.093,0.113-0.29-0.066-0.318-0.318
						c-0.018,0.154-0.095,0.36-0.186,0.289c-0.015-0.095,0.017-0.154,0.031-0.183c-0.262-0.188-0.367,0.33-0.552,0.068
						c-0.007-0.092-0.021-0.138-0.036-0.165c0.203-0.007,0.367,0.003,0.353,0.026c-0.009-0.257-0.175-0.299-0.056-0.656
						c-0.126,0.197-0.336,0.634-0.5,0.521c-0.009-0.024-0.018-0.048-0.025-0.088l0.016-0.03c-0.038-0.023-0.07,0.002-0.1,0.047
						c-0.053-0.039-0.087-0.068-0.137-0.069c-0.029-0.211-0.195-0.104-0.276-0.109c0.021,0.28-0.089,0.241,0.023,0.467
						c-0.014-0.019,0.014-0.034,0.067-0.049c0.012-0.009,0.025-0.014,0.033-0.031l-0.005,0.025c0.054-0.011,0.123-0.022,0.202-0.031
						c-0.058,0.146-0.119,0.271-0.217,0.12c-0.036,0.182-0.073,0.371-0.09,0.46c-0.131-0.385-0.359-0.584-0.403-0.824
						c-0.241,0.172-0.585,0.138-0.703,0.674c-0.064,0.072-0.092-0.146-0.125-0.228c0.037-0.056,0.086-0.05,0.104-0.127
						c-0.132,0.144-0.416,0.077-0.42,0.447c-0.191-0.155,0.072-0.344-0.167-0.27l0.023-0.114c-0.539-0.543-0.692,1.021-1.299,0.325
						c0.042,0.042,0.063,0.062,0.077,0.122c-0.646-0.257-1.208,0.434-1.875,0.007c-0.186-0.076-0.169,0.16-0.245,0.355l-0.083-0.292
						l-0.122,0.375c-0.206,0.294-0.555-0.656-0.791-0.125l0.077,0.193c-0.121-0.018-0.337,0.18-0.361-0.053
						c-0.005,0.039,0.001,0.215-0.062,0.118l-0.033-0.155l-0.228,0.314c-0.238-0.074-0.085-0.622-0.41-0.596
						c-0.107,0.081-0.244,0.509-0.178,0.605c0.049,0,0.14,0.076,0.175,0.23l-0.089,0.099c0.073,0.459,0.094,0.939,0.411,1.213
						l0.121-0.31l0.102,0.211l-0.146,0.04c0.126,0.194,0.143,0,0.178-0.136c0.036,0.114,0.077,0.192,0.12,0.231l0.091-0.466
						c0.055,0.175-0.011,0.368,0.125,0.447c0.043-0.217-0.154-0.389-0.044-0.544c0.124,0.192,0.13,0.366,0.196,0.172
						c0.036,0.116,0.028,0.194-0.001,0.253c0.063-0.156,0.223-0.1,0.226-0.352c0.133,0.243,0.288-0.119,0.353,0.317
						c0.009-0.109,0.099-0.368,0.176-0.4c-0.063,0.546,0.31-0.022,0.358,0.542c0.036-0.487,0.361-0.276,0.517-0.57
						c-0.006,0.039-0.016,0.118-0.037,0.097c0.114,0.019,0.167,0.157,0.25,0.239c-0.039-0.39,0.12-0.498,0.183-0.748
						c0.186,0.36-0.022,0.465,0.069,0.82c-0.05-0.314,0.192-0.34,0.112-0.597c0.134,0.22,0.104,0.103,0.198,0.419
						c-0.043-0.488,0.085-0.093,0.135-0.401c0.18,0.223,0.094,0.452,0.24,0.285C151.391,96.629,151.266,96.817,151.266,96.817z
						 M155.126,95.656v0.006c-0.034,0.008-0.063,0.016-0.081,0.021C155.062,95.677,155.085,95.67,155.126,95.656z M155.459,95.632
						c-0.041-0.008-0.092-0.007-0.146-0.002c-0.016-0.096-0.007-0.197,0.027-0.194C155.326,95.502,155.407,95.553,155.459,95.632z
						 M154.658,93.728c0.053-0.043,0.073,0.011,0.084,0.068c-0.026,0.006-0.056,0.018-0.095,0.039l-0.005,0.035
						C154.646,93.816,154.649,93.766,154.658,93.728z"/>
					<path fill="#EAC800" d="M154.579,94.102c-0.009,0.007-0.012,0.019-0.021,0.022c0.014,0.023,0.025,0.043,0.036,0.061
						l0.015-0.089L154.579,94.102z"/>
					<path fill="#EAC800" d="M185.271,95.429l-0.007-0.006c0.006,0.011,0.013,0.021,0.017,0.039
						C185.277,95.449,185.275,95.44,185.271,95.429z"/>
					<polygon fill="#EAC800" points="160.078,96.165 160.079,96.093 160.049,96.155 					"/>
					<path fill="#EAC800" d="M187.208,96.248c0.006,0.024,0.015,0.049,0.03,0.069C187.236,96.299,187.224,96.275,187.208,96.248z"/>
					<path fill="#EAC800" d="M188.024,96.229l0.126,0.088C188.094,96.265,188.055,96.242,188.024,96.229z"/>
					<path fill="#EAC800" d="M188.664,96.304c-0.001-0.05-0.001-0.087-0.002-0.121l-0.001-0.001L188.664,96.304z"/>
					<path fill="#EAC800" d="M178.711,97.019c-0.009,0.002-0.018,0.006-0.024,0.012C178.628,97.084,178.668,97.063,178.711,97.019z"
						/>
					<path fill="#EAC800" d="M181.674,96.389c-0.031,0.051-0.063,0.102-0.094,0.134C181.633,96.544,181.674,96.549,181.674,96.389z"
						/>
					<polygon fill="#EAC800" points="175.392,97.228 175.393,97.224 175.372,97.222 					"/>
					<path fill="#EAC800" d="M181.442,96.52c0.054,0.056,0.098,0.043,0.139,0.003C181.536,96.505,181.485,96.477,181.442,96.52z"/>
					<path fill="#EAC800" d="M191.383,96.033l0.032,0.006c-0.004-0.018-0.005-0.033-0.005-0.045L191.383,96.033z"/>
					<path fill="#EAC800" d="M191.41,95.994l0.027-0.038C191.423,95.958,191.41,95.963,191.41,95.994z"/>
					<path fill="#EAC800" d="M191.496,95.875l-0.059,0.081C191.463,95.953,191.494,95.957,191.496,95.875z"/>
					<path fill="#EAC800" d="M190.538,96.035l0.006,0.103C190.546,96.116,190.544,96.083,190.538,96.035z"/>
					<path fill="#EAC800" d="M190.292,96.104c0.063,0.014,0.183,0.191,0.257,0.115l-0.005-0.081
						C190.528,96.293,190.323,95.925,190.292,96.104z"/>
					<path fill="#EAC800" d="M189.086,95.019l0.216,0.048c-0.051-0.102-0.116-0.239-0.027-0.28
						C188.976,94.507,189.359,95.02,189.086,95.019z"/>
					<path fill="#EAC800" d="M188.43,94.93c0.104-0.062-0.021-0.157-0.021-0.218C188.351,94.817,188.336,94.844,188.43,94.93z"/>
					<path fill="#EAC800" d="M183.813,95.281l0.001-0.256C183.731,95.066,183.817,95.124,183.813,95.281z"/>
					<polygon fill="#EAC800" points="182.96,96.632 183.049,96.79 183.084,96.555 					"/>
					<polygon fill="#EAC800" points="182.395,94.816 182.431,94.779 182.29,94.874 					"/>
					<path fill="#EAC800" d="M174.618,94.714l0.007,0.316C174.687,94.978,174.72,94.625,174.618,94.714z"/>
					<path fill="#EAC800" d="M171.222,94.812c-0.026-0.16-0.114-0.268-0.184-0.118C171.112,94.721,171.18,94.849,171.222,94.812z"/>
					<polygon fill="#EAC800" points="161.054,93.658 161.126,93.556 160.993,93.638 					"/>
				</g>
			</g>
		</g>
	</g>
</g>
<g>
	<g>
		<g>
			<g>
				<g>
					<path fill="#EAC800" d="M0.034,94.334c-0.037,0.081-0.058,0.276,0.014,0.247l0.1-0.32L0.034,94.334z"/>
					<path fill="#EAC800" d="M0.364,94.998c0.102-0.148,0.231-0.415,0.229-0.722c-0.123,0.304-0.12,0.17-0.26,0.533
						c-0.07,0.029-0.096-0.12-0.064-0.239c-0.036,0.081-0.087-0.085-0.155,0.115c0.042,0.264,0.146,0.289,0.29,0.095
						C0.416,94.856,0.379,94.938,0.364,94.998z"/>
					<path fill="#EAC800" d="M6.654,96.116l-0.04-0.041C6.625,96.098,6.638,96.11,6.654,96.116z"/>
					<path fill="#EAC800" d="M10.616,96.34c-0.03,0.008-0.042,0.041-0.044,0.071C10.601,96.39,10.623,96.369,10.616,96.34z"/>
					<path fill="#EAC800" d="M11.302,96.699c-0.016-0.009-0.027-0.015-0.041-0.022C11.278,96.707,11.293,96.724,11.302,96.699z"/>
					<path fill="#EAC800" d="M6.654,96.116l0.103,0.107C6.767,96.116,6.705,96.142,6.654,96.116z"/>
					<path fill="#EAC800" d="M1.342,94.327c-0.023,0.013-0.045,0.041-0.068,0.079c0.021-0.012,0.039-0.021,0.059-0.027L1.342,94.327
						z"/>
					<path fill="#EAC800" d="M4.891,96.291l-0.032-0.002c-0.01,0.037-0.021,0.082-0.036,0.132L4.891,96.291z"/>
					<path fill="#EAC800" d="M3.542,96.232c0.028,0.015,0.064-0.264,0.088-0.386c-0.028,0.114-0.055,0.167-0.084,0.187
						C3.541,96.086,3.539,96.15,3.542,96.232z"/>
					<path fill="#EAC800" d="M1.48,95.496l-0.042,0.033C1.45,95.52,1.465,95.507,1.48,95.496z"/>
					<path fill="#EAC800" d="M5.85,96.419c0,0.042,0.003,0.079,0.007,0.101C5.858,96.485,5.855,96.452,5.85,96.419z"/>
					<path fill="#EAC800" d="M43.221,93.315c-0.003,0.02-0.005,0.032-0.007,0.049C43.226,93.338,43.231,93.319,43.221,93.315z"/>
					<polygon fill="#EAC800" points="44.538,94.925 44.514,94.937 44.48,95.09 					"/>
					<path fill="#EAC800" d="M12.558,97.011l-0.006-0.006C12.52,97.038,12.539,97.032,12.558,97.011z"/>
					<path fill="#EAC800" d="M23.861,95.938c-0.149-0.238,0.178-0.34-0.04-0.601C23.85,95.446,23.688,95.791,23.861,95.938z"/>
					<path fill="#EAC800" d="M1.371,94.368c0.018,0,0.036,0,0.053,0.005C1.401,94.36,1.385,94.359,1.371,94.368z"/>
					<path fill="#EAC800" d="M23.822,95.338v-0.002L23.8,95.312C23.809,95.322,23.814,95.329,23.822,95.338z"/>
					<path fill="#EAC800" d="M15.41,96.692c-0.01-0.049-0.022-0.086-0.037-0.121C15.376,96.601,15.385,96.636,15.41,96.692z"/>
					<path fill="#EAC800" d="M13.263,96.411l0.054,0.035C13.295,96.421,13.278,96.414,13.263,96.411z"/>
					<path fill="#EAC800" d="M16.484,96.223c0.03,0.02,0.042,0.058,0.079,0.018c-0.006-0.014-0.01-0.023-0.014-0.034
						C16.538,96.246,16.52,96.265,16.484,96.223z"/>
					<path fill="#EAC800" d="M17.627,96.135c-0.01-0.021-0.018-0.036-0.026-0.054l-0.035,0.018L17.627,96.135z"/>
					<path fill="#EAC800" d="M39.67,93.053c0.02,0.081,0.029,0.169,0.035,0.256C39.702,93.108,39.878,93.053,39.67,93.053z"/>
					<path fill="#EAC800" d="M1.321,94.483c0.018-0.069,0.031-0.103,0.051-0.116c-0.014,0.001-0.026,0.005-0.039,0.01
						C1.323,94.419,1.316,94.458,1.321,94.483z"/>
					<path fill="#EAC800" d="M16.37,94.008l0.182,0.029C16.5,94.013,16.434,94.003,16.37,94.008z"/>
					<path fill="#EAC800" d="M31.353,93.051l0.041-0.036C31.377,93.009,31.362,93.018,31.353,93.051z"/>
					<path fill="#EAC800" d="M17.08,93.958c0.04,0.096,0.078,0.15,0.115,0.185c0.007-0.023,0.014-0.041,0.016-0.074L17.08,93.958z"
						/>
					<path fill="#EAC800" d="M39.706,93.312v-0.003V93.312z"/>
					<path fill="#EAC800" d="M40.982,92.758c-0.177-0.024-0.118,0.352-0.176,0.56c-0.219,0.085-0.071-0.28-0.125-0.474
						c-0.142,0.085-0.271,0.414-0.368,0.391c-0.002-0.061-0.019-0.085,0.01-0.159c-0.162,0.28-0.413-0.023-0.603,0.33
						c-0.01-0.034-0.013-0.065-0.014-0.094c0.012,0.188,0.002,0.375-0.014,0.508c-0.077-0.001-0.16,0.219-0.173-0.024
						c0.047,0.011,0.059-0.085,0.086-0.159l-0.089,0.097c-0.049-0.353,0.12-0.109,0.139-0.366c-0.169,0.098-0.373,0.368-0.488,0.259
						c-0.004-0.341,0.294-0.088,0.149-0.404l0.183,0.147c-0.109-0.548,0.112,0.047,0.019-0.536
						c-0.247-0.121-0.294,0.144-0.539,0.037c-0.067,0.187,0.002,0.28-0.064,0.466c-0.373,0.325-0.234-0.863-0.521-0.422
						c-0.079,0.224-0.125,0.652-0.3,0.417l0.081-0.381c-0.243-0.047-0.163,0.546-0.406,0.279c0.051-0.149,0.196-0.12,0.161-0.167
						c-0.153-0.309-0.125,0.213-0.251,0.208l-0.014-0.341c-0.263,0.043-0.555,0.278-0.842,0.329
						c0.019-0.101,0.069-0.205,0.006-0.313c-0.366,0.149-0.771-0.056-1.12-0.255l-0.134,0.294c-0.031-0.003-0.058-0.132-0.023-0.189
						c-0.136-0.111-0.007,0.186-0.073,0.302c-0.077,0.021-0.102-0.168-0.053-0.256c-0.241,0.25-0.678,0.54-0.933,0.227l0.048-0.087
						c-0.198-0.118-0.213,0.603-0.398,0.33l0.034-0.052c-0.429-0.131-0.888,0.157-1.225-0.271c-0.048,0.425-0.428-0.171-0.434,0.419
						c-0.253-0.282-0.188-0.391-0.538-0.573c-0.093-0.023-0.12,0.374-0.229,0.439l-0.018-0.308l-0.138,0.33l-0.099-0.365
						l-0.103,0.083c0.043,0.016,0.097,0.135,0.094,0.224c-0.157,0.146-0.412-0.198-0.425-0.356l-0.376,0.281
						c0.001-0.125,0.064-0.171,0.111-0.253c-0.19,0.328-0.056-0.322-0.23-0.021c0.029,0.068-0.003,0.185-0.004,0.247
						c-0.104-0.179-0.321-0.167-0.477-0.078l0.018-0.214c-0.292-0.035-0.603,0.143-0.927,0.16c0.123,0.091,0.121,0.46,0.029,0.502
						l-0.061-0.322c-0.047,0.205,0.107,0.115-0.001,0.37c-0.123-0.029-0.105-0.364-0.044-0.475l-0.139,0.123
						c-0.016-0.096,0.016-0.15,0.016-0.274c-0.046,0.206-0.276-0.31-0.339,0.047l-0.015-0.096c-0.325,0.02-0.464,0.138-0.727,0.177
						c0.018,0.281-0.091,0.227-0.15,0.46c-0.2-0.073-0.432-0.275-0.662-0.232c-0.152,0.153-0.028,0.241-0.088,0.414
						c-0.033-0.254-0.264-0.21-0.158-0.404c-0.275,0.065-0.353,0.081-0.688,0.318c0.048,0.101,0.095,0.143,0.079,0.232
						c-0.06,0.047-0.153-0.095-0.155-0.218l0.015-0.028c-0.361,0.416-0.979-0.667-1.245-0.105l0.015-0.028l-0.3,0.307
						c-0.152-0.03,0.073-0.2-0.053-0.348c-0.313,0.458-0.56-0.01-0.823,0.3c-0.293-0.731-0.789,0.126-1.135-0.326l0.034,0.175
						c-0.063,0.181-0.104-0.092-0.165-0.128c0.021,0.137,0.1,0.151,0.06,0.252c-0.639,0.274-1.384-0.133-2.072-0.23
						c-0.252-0.025-0.058,0.93-0.407,0.535l0.059-0.337c-0.464,0.443-1.017,0.073-1.475,0.451c0.021-0.078,0.015-0.177,0.063-0.18
						c-0.123-0.231-0.381,0.02-0.366,0.215c-0.077-0.016-0.031-0.175-0.087-0.271c-0.113-0.132-0.232,0.327-0.308,0.094
						c-0.013-0.038,0.022-0.08,0.04-0.1c-0.058,0.122-0.315-0.003-0.229,0.268c-0.192-0.116-0.34,0.152-0.498,0.001
						c-0.071,0.317-0.324-0.122-0.32,0.315c-0.022-0.452-0.348-0.342-0.447-0.123c0.029-0.139-0.11-0.135-0.079-0.326
						c-0.131,0.015-0.245,0.107-0.206,0.337c-0.279-0.523-0.458,0.467-0.641-0.215c-0.374,0.269-0.727,0.457-1.072,0.587
						c-0.014-0.451,0.387-0.071,0.343-0.543c-0.32,0.206-0.492,0.613-0.83,0.516c-0.089-0.058,0.038-0.198,0.063-0.275
						c-0.323,0.199-0.646-0.014-0.93,0.244c-0.001-0.042,0.028-0.089,0.058-0.125c-0.058,0.017-0.139-0.06-0.123,0.144l0.055-0.058
						c0.107,0.293-0.205,0.631-0.209,0.788c0.075-0.591-0.3-0.135-0.172-0.884c-0.037,0.041-0.082,0.14-0.066,0.276
						c-0.06-0.037-0.08-0.116-0.028-0.275c-0.205,0.121-0.122,0.335-0.313,0.338c-0.003-0.099,0.034-0.139,0.05-0.256
						c-0.088,0.197-0.18,0.395-0.343,0.318c0.009-0.06-0.013-0.137,0.035-0.138c-0.273,0.04-0.455,0.539-0.763,0.357
						c0.078-0.432-0.106-0.141-0.131-0.514l-0.159,0.113l0.069,0.181c-0.143-0.005-0.264,0.268-0.389,0.146l0.104-0.155
						l-0.267,0.073l0.154,0.14c-0.142,0.194,0.023,0.472-0.169,0.37c0.038-0.038-0.144-0.003-0.221-0.223v-0.001
						c-0.069,0.12-0.142,0.245-0.248,0.154c-0.028-0.119,0.019-0.413,0-0.493c-0.067,0.313-0.333,0.09-0.42,0.423
						c0.028-0.078,0.029-0.274,0.021-0.314L9.546,95.3C9.48,95.219,9.47,95.18,9.48,95.024c-0.198-0.045,0.064,0.473-0.172,0.271
						c0.02-0.021,0.01-0.059,0.048-0.098c-0.236-0.104-0.459,0.165-0.676,0.042c-0.061-0.375,0.19-0.094,0.12-0.41
						c-0.313,0.078-0.653,0.435-0.956,0.341L7.9,95.213c-0.054,0.529-0.22-0.269-0.379-0.024c0.039-0.038,0.058-0.292,0.045-0.233
						c-0.205-0.092-0.427,0.117-0.749,0.273l0.044-0.135c-0.117-0.125-0.318-0.081-0.448-0.146c-0.045,0.134-0.12,0.11-0.083,0.31
						c-0.368-0.783-0.803,0.389-1.125-0.292c0.043,0.002,0.109-0.111,0.075-0.113l-0.313,0.1c0.008,0.232,0.031,0.143,0.083,0.328
						c-0.048,0.134-0.143,0.232-0.22,0.226c0.149-0.141,0.024-0.37-0.025-0.503c0.005,0.071-0.021,0.147-0.021,0.22
						c-0.132-0.423-0.062,0.461-0.262,0.167l0.021-0.12c-0.087,0.055-0.176,0.209-0.262,0.167c-0.016-0.269,0.098-0.117,0.12-0.336
						c-0.125,0.005-0.288,0.485-0.378,0.21c0.06-0.07,0.137-0.065,0.195-0.134c-0.097-0.323-0.117-0.244-0.204-0.301l0.008,0.008
						l-0.196-0.159l0.046,0.089c-0.22,0.682-0.328,0.102-0.582,0.539c0.247-0.414,0.058-0.246,0.104-0.546
						c-0.045-0.088-0.117-0.188-0.085-0.271c-0.123,0.235-0.144-0.205-0.32,0.139c0.005-0.097-0.104-0.018-0.056-0.26
						c-0.135,0.06,0.012,0.173-0.012,0.292c-0.234,0.307-0.414-0.464-0.75-0.048c-0.268,0.153-0.354,0.473-0.604,0.604
						c-0.057-0.165,0.11-0.343,0.11-0.343c-0.105-0.159-0.201-0.146-0.333-0.052c0.036-0.081,0.021-0.155,0.001-0.269
						c-0.097,0.012-0.112,0.343-0.215,0.184c0.037-0.105,0.088-0.273,0.147-0.375c-0.121,0.074-0.256,0.239-0.383,0.311
						c-0.005-0.172,0.106-0.246,0.163-0.35c-0.138,0.058-0.353,0.107-0.434,0.367l0.067,0.106c-0.049,0.006,0.012-0.232,0.054-0.275
						c0.141-0.194,0.144,0.114,0.136,0.211l-0.09,0.051c-0.001,0.577,0.341-0.046,0.499,0.009l-0.127,0.403l0.217-0.319
						c0.021,0.112,0.014,0.346-0.076,0.396c0.09,0.22,0.125-0.132,0.195,0.109c0.007,0.037-0.001,0.056-0.015,0.071l0.133-0.107
						c-0.034,0.083-0.02,0.294-0.083,0.225c0.178,0.267,0.376-0.263,0.415,0.06L1.928,95.7c0.307-0.1,0.066-0.299,0.325-0.625
						l0.057,0.768L2.37,95.54c0.027,0.015,0.084,0.046,0.06,0.166c0.135-0.192-0.003-0.134,0.083-0.322
						c0.112,0.298,0.408-0.076,0.39,0.406c0.076-0.227-0.118-0.189,0.053-0.337c-0.012,0.524,0.187-0.075,0.294,0.175
						c-0.067,0.265-0.18,0.113-0.07,0.363c0.125-0.448,0.248,0.121,0.369,0.042c0.039-0.361,0.257-0.131,0.455-0.237
						c-0.022,0.121,0.335,0.228,0.5,0.373l-0.01,0.061c0.062-0.364,0.235-0.28,0.372-0.345c-0.021,0.219-0.051,0.304-0.129,0.396
						l0.124,0.008c0.037-0.115,0.08-0.174,0.163-0.209l-0.049,0.271c0.166-0.002,0.352-0.296,0.551-0.096
						C5.549,96,5.398,95.53,5.628,95.377c0,0.139-0.004,0.376-0.066,0.428c0.021-0.017,0.074-0.109,0.109-0.047L5.57,95.983
						c0.091,0.109,0.062-0.188,0.137-0.164c-0.013,0.197,0.049,0.143,0.029,0.299c-0.021,0.018-0.063-0.083-0.096-0.008
						c0.084,0.04,0.183,0.159,0.21,0.31c-0.001-0.112,0.014-0.265,0.079-0.289c0.165-0.009,0.044,0.239,0.136,0.344
						c0.046-0.136,0.146,0.01,0.161-0.285c0.048,0.003,0.051,0.141,0.066,0.221c0.091-0.127,0.398-0.024,0.315-0.341l-0.021-0.021
						l0.014-0.013l0,0l0,0c0.289-0.284,0.571,0.186,0.853,0.068L7.45,96.203c0.168-0.107,0.368-0.055,0.489-0.263
						c0.049,0.002,0.112,0.184,0.089,0.301c0.127-0.07,0.144-0.181,0.322-0.012c-0.129,0.168,0.042,0.154-0.131,0.122
						c0.163,0.089,0.199,0.251,0.377-0.017c-0.063,0.253,0.121,0.317,0.2,0.241l-0.114-0.18c0.088-0.038,0.165-0.016,0.242,0.005
						l-0.044,0.333c0.337,0.401,0.605-0.694,0.864-0.02c0.088-0.233-0.185-0.162-0.105-0.435c0.154,0.043,0.319,0.52,0.368,0.521
						c0.215,0.182,0.193-0.488,0.416-0.364c-0.03-0.118-0.062-0.435,0.102-0.548c0.154,0.042,0.198,0.496,0.103,0.592
						c-0.037,0.01-0.056-0.027-0.054-0.067c-0.05,0.043-0.114,0.095-0.052,0.223l0.019-0.119c0.079,0.121,0.292,0.106,0.246,0.3
						c0.114-0.113,0.046-0.194-0.042-0.255c0.201,0.169,0.31,0.002,0.518,0.117c-0.034-0.066-0.067-0.205-0.035-0.205
						c0.303,0.144,0.126-0.226,0.327-0.285c0.12,0.176-0.029,0.433,0.17,0.273c0.128,0.118,0.036,0.314-0.011,0.413
						c0.179-0.235,0.353,0.136,0.461,0.173l-0.095,0.1c0.057-0.059,0.104-0.06,0.153-0.061l-0.063-0.234
						c0.059,0.039,0.107,0.037,0.109,0.137c0.055-0.158-0.06-0.393,0.051-0.61c0.081,0.117,0.228-0.139,0.267,0.174
						c-0.245-0.097,0.039,0.315-0.164,0.375c0.038-0.039,0.086-0.041,0.146,0c0.01,0.034-0.005,0.064-0.021,0.084
						c0.243,0.271,0.092-0.361,0.332-0.363c-0.022,0.179,0.069,0.334,0.107,0.293c-0.098,0-0.06-0.293,0.023-0.434
						c0.159,0.133,0.162-0.109,0.243-0.097L13.17,96.35c0.022-0.178,0.1-0.158,0.204-0.219c0.016,0.138-0.092,0.099-0.051,0.158
						c0.103-0.316,0.282,0.312,0.438,0.095c0.083,0.117,0.024,0.333,0.096,0.411c0.173-0.238,0.214,0.233,0.399,0.036
						c-0.07-0.236-0.076-0.176,0.048-0.416l-0.311,0.182l0.187-0.354c-0.097,0-0.196,0.158-0.255,0.12
						c0.087-0.198,0.08-0.139,0.023-0.334c0.15,0.351,0.25-0.217,0.414,0.013l0.029,0.59c0.245,0.248,0.389-0.33,0.695-0.201
						l-0.103-0.096c0.025-0.237,0.183-0.045,0.271-0.146c0.004,0.198,0.068,0.265,0.118,0.385c-0.016-0.146,0.219-0.002,0.22-0.396
						l0.15,0.25c0.248,0.09,0.234-0.58,0.47-0.528c-0.054,0.219,0.061,0.351-0.083,0.515c0.077-0.003,0.148,0.028,0.141-0.108
						c0.055,0.121,0.194-0.279,0.279-0.097c0.026-0.089,0.021-0.295,0.109-0.285c0.012,0.04,0.007,0.097,0.007,0.097
						c-0.007-0.097,0.125-0.141,0.034-0.354c0.282,0.601,0.655-0.094,0.902,0.416c0.159-0.083,0.356-0.163,0.506-0.19
						c-0.005,0.06,0.009,0.098-0.022,0.08c0.225,0.165,0.083-0.576,0.337-0.392c0.147,0.308-0.112,0.183-0.026,0.297
						c0.087,0.645,0.28-0.113,0.474,0.252l-0.036,0.041c0.142,0.209,0.277-0.27,0.482-0.241c0,0-0.005,0.058,0.008,0.098
						c0.107-0.342,0.356-0.472,0.542-0.581c-0.037,0.258-0.075,0.142-0.017,0.396c0.083-0.044-0.062-0.411,0.104-0.499
						c0.067,0.133,0.204,0.243,0.245,0.516l-0.161,0.03c0.114,0.348,0.209-0.032,0.3,0.022l0.003,0.156
						c0.245-0.073,0.212-0.465,0.481-0.461l-0.037-0.115c0.109-0.401,0.142,0.207,0.261-0.095l0.08,0.389
						c0.088-0.104,0.303-0.411,0.469-0.501c-0.071,0.301-0.259,0.469-0.369,0.653c0.096-0.006,0.322-0.059,0.354-0.257
						c-0.035,0.042-0.074,0.142-0.118,0.085c0.089-0.32,0.229-0.486,0.42-0.497c0.037,0.765,0.514,0.146,0.707,0.725
						c0.311-0.313,0.678,0.059,1.064-0.023c-0.193-0.58,0.112-0.027,0.032-0.634c0.087-0.047,0.123-0.041,0.135-0.001l0.311,0.338
						c0.082,0.171-0.074,0.143-0.053,0.278c0.204,0.028,0.106,0.25,0.254,0.4c-0.047-0.215,0.041-0.318,0.162-0.246l-0.187-0.266
						c0.25-0.35,0.288,0.489,0.54,0.142l-0.072,0.2c0.135-0.126,0.532-0.045,0.629-0.548c0.032,0.068,0.081,0.231,0.021,0.281
						c0.35,0.043,0.72-0.585,1.013-0.307l-0.014,0.151c0.061-0.048,0.088-0.289,0.181-0.146c0.001,0.062-0.014,0.151,0.018,0.157
						c0.028-0.054,0.147-0.275,0.24-0.196l-0.059,0.174c0.351,0.167,0.48-0.452,0.754-0.577c0.034,0.438,0.31,0.559,0.446,0.619
						v0.063c0.394,0.02,0.633-0.41,0.982-0.609c0.258,0.462,0.772,0.149,1.149,0.393c-0.06-0.076-0.013-0.343,0.049-0.391
						c0.09,0.083,0.215-0.321,0.227,0.083l-0.03-0.005c0.087,0.391,0.254,0.274,0.39,0.276l-0.007-0.528
						c0.396,0.743,0.915-0.322,1.141,0.354c0.079-0.135,0.186-0.138,0.265-0.273l0.007,0.283c0.239,0.063,0.357,0.093,0.647,0.014
						l-0.054,0.205c0.165,0.012,0.182-0.824,0.333-0.847l0.06,0.421c0.288-0.02,0.587,0.339,0.86-0.042
						c-0.003,0.062-0.01,0.184-0.056,0.202c0.136,0.01,0.524,0.283,0.468-0.296c0.008,0.377,0.295,0.035,0.451-0.132l-0.021,0.279
						c0.128-0.357,0.132-0.454,0.315-0.554c0.043,0.036,0.039,0.223-0.019,0.152c0.145,0.145,0.111-0.265,0.289-0.117l-0.066,0.178
						c0.149,0.021,0.137-0.075,0.22-0.283c0.096-0.112,0.284,0.069,0.304,0.321c0.021-0.154,0.104-0.36,0.191-0.288
						c0.011,0.095-0.021,0.154-0.038,0.183c0.247,0.187,0.376-0.326,0.542-0.043c0.002,0.093,0.013,0.14,0.026,0.167
						c-0.197-0.017-0.356-0.033-0.341-0.051c-0.003,0.256,0.154,0.301,0.022,0.656c0.129-0.193,0.355-0.603,0.508-0.477
						c0.008,0.025,0.015,0.05,0.019,0.089l-0.018,0.028c0.035,0.027,0.067,0.004,0.1-0.038c0.048,0.044,0.079,0.077,0.126,0.082
						c0.013,0.213,0.178,0.122,0.256,0.135c0.002-0.282,0.105-0.232,0.015-0.468c0.013,0.021-0.016,0.033-0.068,0.043
						c-0.013,0.008-0.026,0.011-0.035,0.028l0.006-0.024c-0.053,0.006-0.121,0.01-0.198,0.011c0.066-0.141,0.137-0.258,0.22-0.099
						c0.05-0.178,0.102-0.362,0.126-0.449c0.097,0.396,0.298,0.616,0.317,0.858c0.248-0.148,0.572-0.083,0.752-0.604
						c0.073-0.065,0.072,0.154,0.093,0.238c-0.043,0.052-0.09,0.042-0.114,0.117c0.145-0.13,0.411-0.038,0.466-0.404
						c0.165,0.173-0.119,0.335,0.125,0.284l-0.039,0.111c0.423,0.621,0.831-0.873,1.293-0.073c-0.032-0.049-0.048-0.072-0.05-0.135
						c0.558,0.393,1.262-0.215,1.779,0.394c0.151,0.131,0.198-0.1,0.323-0.262l-0.004,0.305l0.219-0.319
						c0.283-0.215,0.315,0.798,0.694,0.368l-0.008-0.208c0.104,0.055,0.372-0.064,0.314,0.164c0.018-0.035,0.071-0.203,0.098-0.092
						l-0.022,0.156l0.318-0.225c0.191,0.145-0.141,0.613,0.16,0.689c0.124-0.042,0.407-0.403,0.384-0.513
						c-0.045-0.015-0.102-0.115-0.076-0.271l0.121-0.064c0.104-0.455,0.277-0.91,0.068-1.271l-0.237,0.251l-0.021-0.231l0.16,0.01
						c-0.052-0.223-0.142-0.047-0.227,0.071c0.006-0.121-0.006-0.208-0.036-0.257l-0.258,0.41c0.008-0.183,0.143-0.344,0.036-0.462
						c-0.12,0.19,0.014,0.416-0.149,0.527c-0.054-0.222,0-0.389-0.134-0.226c0.004-0.121,0.039-0.192,0.089-0.238
						c-0.116,0.128-0.257,0.022-0.343,0.26c-0.054-0.272-0.324,0.019-0.249-0.416c-0.045,0.1-0.215,0.317-0.302,0.322
						c0.23-0.498-0.315-0.079-0.197-0.633c-0.181,0.452-0.448,0.145-0.687,0.375c0.017-0.036,0.048-0.108,0.063-0.081
						c-0.111-0.058-0.127-0.203-0.192-0.298c-0.061,0.388-0.251,0.46-0.375,0.692c-0.099-0.389,0.138-0.45,0.134-0.814
						c-0.028,0.316-0.282,0.292-0.263,0.56c-0.083-0.242-0.081-0.121-0.103-0.449c-0.07,0.485-0.11,0.073-0.231,0.364
						c-0.133-0.254,0.005-0.46-0.183-0.328C40.811,92.917,40.982,92.758,40.982,92.758z M36.819,93.354v-0.005
						c0.035-0.005,0.065-0.01,0.084-0.013C36.886,93.339,36.862,93.344,36.819,93.354z M36.476,93.345
						c0.042,0.012,0.093,0.016,0.148,0.017c0.01,0.097-0.004,0.197-0.039,0.19C36.605,93.488,36.525,93.429,36.476,93.345z
						 M37.145,95.32c-0.054,0.038-0.068-0.018-0.075-0.076c0.025-0.004,0.055-0.013,0.094-0.03l0.007-0.034
						C37.163,95.233,37.156,95.283,37.145,95.32z"/>
					<path fill="#EAC800" d="M37.25,94.955c0.008-0.006,0.012-0.018,0.021-0.02c-0.011-0.025-0.021-0.046-0.029-0.064l-0.021,0.087
						L37.25,94.955z"/>
					<path fill="#EAC800" d="M6.607,96.069l0.007,0.006c-0.005-0.011-0.011-0.022-0.014-0.041
						C6.604,96.049,6.605,96.058,6.607,96.069z"/>
					<polygon fill="#EAC800" points="31.729,92.896 31.732,92.967 31.759,92.904 					"/>
					<path fill="#EAC800" d="M4.801,95.001c-0.002-0.025-0.007-0.051-0.019-0.074C4.782,94.946,4.791,94.972,4.801,95.001z"/>
					<path fill="#EAC800" d="M4.011,94.874l-0.104-0.109C3.951,94.825,3.984,94.855,4.011,94.874z"/>
					<path fill="#EAC800" d="M3.414,94.686c-0.011,0.049-0.018,0.085-0.024,0.119l0.001,0.002L3.414,94.686z"/>
					<path fill="#EAC800" d="M13.135,94.534c0.008-0.001,0.016-0.006,0.023-0.014C13.211,94.463,13.174,94.486,13.135,94.534z"/>
					<path fill="#EAC800" d="M10.248,95.275c0.029-0.051,0.06-0.102,0.092-0.134C10.288,95.121,10.248,95.115,10.248,95.275z"/>
					<polygon fill="#EAC800" points="16.35,94.004 16.35,94.009 16.37,94.008 					"/>
					<path fill="#EAC800" d="M10.475,95.146c-0.052-0.056-0.096-0.043-0.135-0.004C10.383,95.16,10.433,95.188,10.475,95.146z"/>
					<path fill="#EAC800" d="M0.809,94.227l-0.026-0.016c-0.003,0.019-0.007,0.033-0.011,0.044L0.809,94.227z"/>
					<path fill="#EAC800" d="M0.771,94.256l-0.038,0.028C0.748,94.286,0.761,94.286,0.771,94.256z"/>
					<path fill="#EAC800" d="M0.654,94.345l0.079-0.061C0.71,94.28,0.682,94.268,0.654,94.345z"/>
					<path fill="#EAC800" d="M1.589,94.466l0.022-0.1C1.604,94.386,1.597,94.418,1.589,94.466z"/>
					<path fill="#EAC800" d="M1.836,94.47c-0.056-0.031-0.117-0.235-0.206-0.183l-0.019,0.079C1.67,94.221,1.759,94.633,1.836,94.47
						z"/>
					<path fill="#EAC800" d="M2.714,95.862l-0.2-0.109c0.024,0.113,0.056,0.265-0.042,0.277C2.701,96.389,2.445,95.781,2.714,95.862
						z"/>
					<path fill="#EAC800" d="M3.35,96.075c-0.118,0.042-0.014,0.157-0.025,0.218C3.406,96.2,3.426,96.176,3.35,96.075z"/>
					<path fill="#EAC800" d="M8.074,96.341l-0.017,0.256C8.146,96.563,8.061,96.497,8.074,96.341z"/>
					<polygon fill="#EAC800" points="8.983,95.03 8.9,94.872 8.859,95.106 					"/>
					<polygon fill="#EAC800" points="9.511,96.847 9.473,96.884 9.619,96.79 					"/>
					<path fill="#EAC800" d="M17.443,96.4l-0.051-0.312C17.338,96.149,17.354,96.503,17.443,96.4z"/>
					<path fill="#EAC800" d="M20.809,95.787c0.051,0.153,0.156,0.246,0.2,0.086C20.931,95.858,20.844,95.743,20.809,95.787z"/>
					<polygon fill="#EAC800" points="30.956,95.457 30.894,95.567 31.016,95.472 					"/>
				</g>
			</g>
		</g>
	</g>
</g>
<g>
	<g>
		<g>
			<g>
				<g>
					<path fill="#EAC800" d="M95.477,0.001c-0.089-0.009-0.277,0.036-0.231,0.095l0.333-0.008L95.477,0.001z"/>
					<path fill="#EAC800" d="M94.932,0.536c0.169,0.05,0.459,0.095,0.753-0.002c-0.324-0.026-0.196-0.065-0.581-0.087
						c-0.047-0.059,0.089-0.13,0.211-0.139c-0.087-0.009,0.059-0.113-0.151-0.114c-0.241,0.126-0.237,0.233-0.014,0.311
						C95.081,0.542,94.993,0.532,94.932,0.536z"/>
					<path fill="#EAC800" d="M95.019,6.879l0.038-0.042C95.035,6.849,95.024,6.863,95.019,6.879z"/>
					<path fill="#EAC800" d="M94.878,10.782c-0.007-0.03-0.041-0.042-0.07-0.044C94.829,10.766,94.849,10.789,94.878,10.782z"/>
					<path fill="#EAC800" d="M94.507,11.439c0.009-0.015,0.015-0.026,0.022-0.039C94.5,11.415,94.482,11.429,94.507,11.439z"/>
					<path fill="#EAC800" d="M95.019,6.879l-0.101,0.108C95.026,6.99,94.997,6.931,95.019,6.879z"/>
					<path fill="#EAC800" d="M95.842,1.293c-0.02-0.02-0.052-0.034-0.094-0.045c0.017,0.016,0.03,0.032,0.042,0.049L95.842,1.293z"
						/>
					<path fill="#EAC800" d="M94.66,5.179l-0.003-0.031c-0.039-0.005-0.085-0.01-0.137-0.017L94.66,5.179z"/>
					<path fill="#EAC800" d="M94.503,3.875c-0.01,0.031,0.271,0.015,0.394,0.016C94.78,3.885,94.724,3.868,94.7,3.844
						C94.647,3.848,94.583,3.858,94.503,3.875z"/>
					<path fill="#EAC800" d="M94.754,1.746L94.71,1.714C94.723,1.723,94.739,1.734,94.754,1.746z"/>
					<path fill="#EAC800" d="M94.665,6.12c-0.042,0.004-0.078,0.011-0.101,0.018C94.601,6.136,94.634,6.129,94.665,6.12z"/>
					<path fill="#EAC800" d="M95.748,43.02c-0.021,0.003-0.032,0.005-0.049,0.007C95.728,43.03,95.748,43.03,95.748,43.02z"/>
					<polygon fill="#EAC800" points="94.604,44.752 94.586,44.734 94.43,44.758 					"/>
					<path fill="#EAC800" d="M94.1,12.64l0.006-0.005C94.075,12.602,94.08,12.62,94.1,12.64z"/>
					<path fill="#EAC800" d="M93.449,23.835c0.262-0.104,0.302,0.237,0.598,0.071C93.935,23.914,93.626,23.692,93.449,23.835z"/>
					<path fill="#EAC800" d="M95.81,1.333c0.005,0.018,0.01,0.036,0.01,0.055C95.826,1.361,95.823,1.344,95.81,1.333z"/>
					<path fill="#EAC800" d="M94.046,23.906h0.002l0.028-0.018C94.064,23.896,94.057,23.901,94.046,23.906z"/>
					<path fill="#EAC800" d="M94.122,15.444c0.05-0.002,0.088-0.011,0.125-0.021C94.218,15.422,94.183,15.426,94.122,15.444z"/>
					<path fill="#EAC800" d="M94.638,13.378l-0.04,0.05C94.625,13.408,94.634,13.392,94.638,13.378z"/>
					<path fill="#EAC800" d="M94.445,16.556c-0.022,0.027-0.063,0.034-0.027,0.075c0.015-0.004,0.023-0.006,0.035-0.009
						C94.415,16.604,94.398,16.584,94.445,16.556z"/>
					<path fill="#EAC800" d="M94.361,17.688c0.021-0.006,0.039-0.011,0.059-0.017l-0.012-0.037L94.361,17.688z"/>
					<path fill="#EAC800" d="M95.238,39.686c-0.076,0.03-0.161,0.051-0.246,0.07C95.188,39.724,95.274,39.881,95.238,39.686z"/>
					<path fill="#EAC800" d="M95.685,1.315c0.071-0.003,0.107,0.001,0.125,0.017c-0.005-0.013-0.012-0.024-0.021-0.036
						C95.748,1.299,95.708,1.304,95.685,1.315z"/>
					<path fill="#EAC800" d="M96.653,16.764L96.6,16.943C96.63,16.894,96.649,16.829,96.653,16.764z"/>
					<path fill="#EAC800" d="M95.161,31.654l0.031,0.042C95.2,31.681,95.192,31.667,95.161,31.654z"/>
					<path fill="#EAC800" d="M96.602,17.487c-0.102,0.025-0.162,0.055-0.203,0.087c0.021,0.009,0.039,0.021,0.071,0.027
						L96.602,17.487z"/>
					<path fill="#EAC800" d="M94.988,39.756h0.004H94.988z"/>
					<path fill="#EAC800" d="M95.758,40.856c-0.007-0.167-0.367-0.043-0.581-0.058c-0.123-0.191,0.262-0.119,0.444-0.204
						c-0.108-0.115-0.455-0.181-0.449-0.276c0.06-0.012,0.08-0.032,0.158-0.017c-0.306-0.108-0.051-0.391-0.433-0.518
						c0.032-0.014,0.063-0.022,0.09-0.027c-0.183,0.039-0.369,0.057-0.503,0.062c-0.013-0.076-0.246-0.125-0.008-0.171
						c-0.002,0.047,0.095,0.044,0.172,0.061l-0.111-0.072c0.339-0.096,0.129,0.101,0.386,0.082c-0.127-0.146-0.43-0.309-0.343-0.435
						c0.336-0.046,0.139,0.271,0.426,0.092l-0.113,0.192c0.522-0.176-0.026,0.113,0.533-0.054c0.077-0.245-0.201-0.255-0.109-0.502
						c-0.189-0.043-0.277,0.034-0.468-0.009c-0.352-0.326,0.842-0.316,0.381-0.543c-0.229-0.054-0.659-0.06-0.438-0.25l0.386,0.044
						c0.029-0.235-0.557-0.11-0.308-0.367c0.151,0.038,0.134,0.179,0.178,0.142c0.297-0.171-0.222-0.104-0.228-0.227l0.34-0.038
						c-0.063-0.247-0.319-0.514-0.393-0.791c0.103,0.013,0.21,0.058,0.313-0.009c-0.19-0.344,0.027-0.746,0.231-1.082l-0.293-0.127
						c0.004-0.03,0.133-0.056,0.189-0.024c0.111-0.131-0.187-0.006-0.302-0.069c-0.02-0.075,0.17-0.099,0.258-0.051
						c-0.247-0.23-0.532-0.665-0.217-0.906l0.088,0.048c0.119-0.188-0.601-0.224-0.326-0.396l0.052,0.035
						c0.124-0.411-0.126-0.878,0.332-1.181c-0.42-0.074,0.205-0.403-0.383-0.451c0.301-0.226,0.403-0.154,0.614-0.479
						c0.03-0.087-0.362-0.148-0.42-0.261l0.309,0.011l-0.317-0.164l0.372-0.062l-0.075-0.107c-0.02,0.04-0.142,0.081-0.229,0.07
						c-0.133-0.168,0.229-0.382,0.388-0.377l-0.241-0.396c0.124,0.016,0.162,0.082,0.237,0.137
						c-0.301-0.221,0.327-0.019,0.051-0.222c-0.07,0.021-0.183-0.024-0.244-0.032c0.192-0.083,0.208-0.294,0.141-0.455l0.21,0.043
						c0.073-0.279-0.063-0.603-0.037-0.92c-0.106,0.107-0.472,0.057-0.501-0.04l0.327-0.015c-0.197-0.074-0.129,0.089-0.366-0.052
						c0.045-0.116,0.375-0.054,0.476,0.021L95.3,29.308c0.097-0.001,0.146,0.036,0.27,0.053c-0.197-0.074,0.343-0.226-0.002-0.336
						l0.099-0.001c0.024-0.317-0.081-0.468-0.075-0.729c-0.28-0.027-0.209-0.124-0.429-0.219c0.104-0.184,0.343-0.378,0.339-0.609
						c-0.126-0.173-0.233-0.066-0.395-0.153c0.256,0.009,0.251-0.223,0.426-0.088c-0.019-0.279-0.021-0.356-0.199-0.723
						c-0.107,0.029-0.157,0.067-0.242,0.038c-0.037-0.067,0.119-0.135,0.241-0.116l0.024,0.019c-0.35-0.426,0.819-0.837,0.318-1.198
						l0.024,0.02l-0.247-0.349c0.058-0.145,0.183,0.107,0.352,0.011c-0.394-0.388,0.113-0.546-0.144-0.861
						c0.772-0.153,0.02-0.796,0.527-1.052l-0.179,0.001c-0.167-0.094,0.11-0.084,0.156-0.138c-0.14-0.005-0.167,0.069-0.26,0.012
						c-0.151-0.681,0.386-1.34,0.608-2.004c0.071-0.244-0.904-0.224-0.452-0.498l0.321,0.119c-0.347-0.535,0.102-1.026-0.19-1.546
						c0.074,0.036,0.172,0.045,0.167,0.093c0.248-0.083,0.044-0.383-0.15-0.401c0.028-0.075,0.178-0.003,0.28-0.042
						c0.15-0.093-0.282-0.287-0.04-0.323c0.039-0.006,0.074,0.036,0.092,0.056c-0.11-0.077,0.056-0.314-0.226-0.271
						c0.147-0.174-0.093-0.363,0.083-0.497c-0.3-0.12,0.177-0.304-0.26-0.369c0.45,0.048,0.386-0.298,0.181-0.431
						c0.135,0.049,0.148-0.091,0.334-0.032c0.004-0.135-0.072-0.263-0.306-0.256c0.557-0.209-0.401-0.525,0.3-0.617
						c-0.216-0.415-0.354-0.792-0.437-1.154c0.449,0.039,0.019,0.397,0.492,0.411c-0.165-0.352-0.531-0.567-0.411-0.899
						c0.064-0.084,0.193,0.06,0.269,0.094c-0.171-0.35,0.069-0.657-0.164-0.971c0.042,0.003,0.086,0.038,0.12,0.07
						c-0.012-0.061,0.071-0.136-0.133-0.138l0.053,0.061c-0.301,0.081-0.61-0.264-0.768-0.28c0.583,0.125,0.16-0.291,0.896-0.101
						c-0.037-0.041-0.132-0.094-0.27-0.09c0.042-0.057,0.123-0.072,0.275-0.007c-0.103-0.218-0.323-0.15-0.311-0.343
						c0.099,0.004,0.136,0.044,0.251,0.069c-0.189-0.105-0.378-0.21-0.288-0.37c0.06,0.012,0.138-0.004,0.134,0.044
						c-0.02-0.282-0.49-0.493-0.299-0.794c0.43,0.102,0.144-0.101,0.517-0.108l-0.11-0.168l-0.182,0.063
						c0.007-0.146-0.264-0.279-0.141-0.401l0.153,0.11l-0.068-0.273l-0.143,0.151c-0.191-0.149-0.474,0.008-0.367-0.183
						c0.037,0.04,0.006-0.144,0.227-0.216h0.001c-0.117-0.073-0.242-0.146-0.148-0.253c0.12-0.026,0.413,0.026,0.492,0.009
						c-0.313-0.073-0.083-0.34-0.416-0.431c0.078,0.03,0.273,0.033,0.313,0.023l-0.253-0.06c0.082-0.067,0.121-0.077,0.277-0.065
						c0.048-0.202-0.475,0.063-0.269-0.176c0.021,0.019,0.06,0.01,0.098,0.049c0.107-0.241-0.157-0.464-0.03-0.685
						c0.376-0.068,0.09,0.192,0.408,0.116c-0.06-0.32-0.465-0.656-0.383-0.966L96,8.065c-0.532-0.031,0.255-0.235,0-0.386
						c0.04,0.037,0.295,0.042,0.235,0.034c0.078-0.214-0.145-0.43-0.32-0.743l0.138,0.035c0.117-0.129,0.059-0.331,0.117-0.468
						c-0.137-0.034-0.118-0.112-0.314-0.056c0.768-0.455-0.441-0.766,0.167-1.17c0.005,0.043,0.127,0.097,0.125,0.062l-0.149-0.305
						c-0.229,0.041-0.137,0.051-0.311,0.128c-0.14-0.03-0.253-0.111-0.259-0.188c0.164,0.129,0.37-0.027,0.494-0.098
						c-0.07,0.016-0.149,0-0.221,0.011c0.396-0.193-0.467,0.007-0.208-0.235l0.122,0.002c-0.068-0.079-0.234-0.142-0.207-0.234
						c0.263-0.059,0.131,0.078,0.351,0.066c-0.025-0.125-0.525-0.207-0.269-0.343c0.078,0.047,0.086,0.124,0.163,0.171
						c0.304-0.15,0.223-0.159,0.265-0.256l-0.006,0.01l0.124-0.227l-0.08,0.063c-0.707-0.095-0.153-0.311-0.625-0.479
						c0.446,0.164,0.251,0.009,0.554-0.005c0.079-0.063,0.166-0.155,0.253-0.14c-0.251-0.076,0.178-0.189-0.188-0.295
						c0.097-0.017,0.001-0.109,0.245-0.113c-0.093-0.123-0.163,0.049-0.288,0.051c-0.355-0.164,0.337-0.521-0.156-0.757
						c-0.222-0.227-0.555-0.23-0.748-0.438c0.144-0.098,0.36,0.017,0.36,0.017c0.125-0.145,0.087-0.236-0.041-0.339
						c0.088,0.012,0.155-0.022,0.259-0.074c-0.038-0.092-0.36-0.014-0.235-0.159c0.111,0.006,0.287,0.009,0.401,0.04
						c-0.104-0.1-0.301-0.185-0.403-0.288c0.164-0.056,0.265,0.032,0.38,0.058c-0.094-0.12-0.199-0.317-0.471-0.316L95.17,0.799
						c-0.02-0.045,0.225-0.06,0.277-0.032c0.225,0.081-0.068,0.176-0.165,0.196L95.21,0.89c-0.555,0.169,0.136,0.316,0.126,0.488
						l-0.421-0.011l0.364,0.122c-0.102,0.051-0.328,0.107-0.401,0.035c-0.188,0.146,0.161,0.084-0.052,0.216
						c-0.034,0.016-0.055,0.014-0.072,0.005l0.138,0.099c-0.09-0.011-0.289,0.058-0.239-0.021c-0.209,0.236,0.355,0.292,0.054,0.409
						l-0.028-0.014c0.179,0.268,0.307-0.011,0.692,0.162l-0.729,0.233l0.308-0.007c-0.008,0.031-0.022,0.092-0.146,0.095
						c0.223,0.086,0.129-0.034,0.334,0.008c-0.254,0.173,0.182,0.379-0.303,0.463c0.234,0.027,0.167-0.156,0.34-0.02
						c-0.517,0.098,0.104,0.167-0.125,0.323c-0.272-0.014-0.14-0.151-0.369,0.003c0.46,0.033-0.079,0.263,0.017,0.363
						c0.362-0.028,0.171,0.225,0.307,0.399c-0.122-0.001-0.171,0.364-0.288,0.544h-0.062c0.369,0.005,0.314,0.188,0.4,0.311
						c-0.22,0.01-0.308-0.007-0.412-0.069l0.011,0.12c0.12,0.021,0.186,0.054,0.233,0.129l-0.276-0.012
						c0.028,0.159,0.35,0.303,0.184,0.521c0.257-0.002,0.698-0.208,0.887,0.004c-0.138,0.016-0.374,0.038-0.435-0.017
						c0.02,0.018,0.12,0.061,0.063,0.102L95.073,5.8c-0.095,0.1,0.2,0.039,0.182,0.116c-0.197,0.009-0.14,0.063-0.296,0.061
						c-0.021-0.018,0.081-0.07,0-0.095c-0.031,0.087-0.146,0.197-0.294,0.238c0.111-0.013,0.266-0.014,0.293,0.047
						c0.02,0.161-0.236,0.067-0.334,0.166c0.138,0.032,0,0.142,0.294,0.131c0,0.047-0.138,0.062-0.216,0.084
						c0.133,0.078,0.049,0.388,0.359,0.281l0.021-0.022l0.013,0.013l0,0l0,0c0.302,0.264-0.149,0.577-0.014,0.844l-0.1,0.002
						c0.118,0.159,0.079,0.359,0.294,0.472c0.001,0.048-0.176,0.117-0.295,0.098c0.078,0.123,0.189,0.135,0.033,0.317
						c-0.177-0.123-0.151,0.045-0.13-0.126c-0.081,0.162-0.235,0.2,0.036,0.37c-0.252-0.056-0.32,0.124-0.245,0.2l0.182-0.114
						c0.036,0.085,0.014,0.161-0.009,0.238l-0.332-0.04c-0.408,0.328,0.683,0.593,0.003,0.842c0.231,0.088,0.165-0.178,0.438-0.099
						c-0.046,0.152-0.525,0.306-0.526,0.354c-0.187,0.204,0.484,0.198,0.356,0.414c0.118-0.026,0.436-0.048,0.546,0.117
						c-0.045,0.152-0.5,0.179-0.595,0.082c-0.01-0.037,0.028-0.054,0.068-0.051c-0.042-0.05-0.093-0.115-0.222-0.057l0.119,0.021
						c-0.122,0.073-0.111,0.282-0.306,0.229c0.112,0.116,0.194,0.053,0.256-0.031c-0.174,0.19-0.008,0.303-0.125,0.5
						c0.065-0.03,0.205-0.056,0.204-0.024c-0.149,0.29,0.225,0.135,0.27,0.336c-0.187,0.108-0.431-0.053-0.287,0.152
						c-0.127,0.119-0.315,0.016-0.41-0.035c0.221,0.189-0.165,0.335-0.211,0.437l-0.092-0.099c0.054,0.059,0.051,0.106,0.048,0.154
						l0.239-0.046c-0.043,0.055-0.046,0.102-0.146,0.098c0.153,0.063,0.396-0.03,0.604,0.093c-0.124,0.071,0.119,0.234-0.196,0.248
						c0.117-0.232-0.317,0.014-0.36-0.188c0.036,0.04,0.033,0.086-0.012,0.141c-0.035,0.007-0.064-0.01-0.082-0.026
						c-0.291,0.214,0.352,0.118,0.334,0.352c-0.176-0.037-0.339,0.04-0.303,0.08c0.008-0.094,0.298-0.032,0.43,0.06
						c-0.145,0.145,0.096,0.168,0.076,0.247l0.069-0.087c0.176,0.039,0.148,0.113,0.2,0.221c-0.139,0.002-0.091-0.1-0.153-0.065
						c0.307,0.132-0.333,0.248-0.13,0.42c-0.123,0.069-0.333-0.01-0.417,0.052c0.222,0.194-0.251,0.184-0.069,0.384
						c0.24-0.042,0.184-0.055,0.408,0.093l-0.153-0.323l0.338,0.221c0.007-0.095-0.142-0.209-0.099-0.264
						c0.189,0.107,0.131,0.094,0.331,0.059c-0.364,0.111,0.199,0.271-0.054,0.408l-0.589-0.038c-0.277,0.21,0.275,0.418,0.107,0.703
						l0.108-0.088c0.232,0.054,0.021,0.183,0.109,0.284c-0.197-0.021-0.271,0.034-0.396,0.066c0.146,0.004-0.028,0.213,0.363,0.266
						l-0.269,0.113c-0.122,0.229,0.543,0.309,0.461,0.533c-0.209-0.084-0.356,0.01-0.499-0.154
						c-0.007,0.076-0.048,0.142,0.089,0.153c-0.126,0.035,0.251,0.23,0.059,0.286c0.084,0.039,0.29,0.064,0.269,0.148
						c-0.041,0.006-0.097-0.007-0.097-0.007c0.097,0.007,0.123,0.144,0.346,0.085c-0.627,0.188-0.004,0.661-0.549,0.824
						c0.052,0.172,0.099,0.377,0.1,0.529c-0.058-0.015-0.098-0.008-0.075-0.035c-0.201,0.193,0.555,0.174,0.33,0.395
						c-0.329,0.094-0.162-0.141-0.289-0.075c-0.649-0.021,0.064,0.293-0.327,0.42l-0.034-0.042c-0.23,0.103,0.22,0.318,0.156,0.513
						c0,0-0.057-0.015-0.098-0.01c0.318,0.165,0.406,0.433,0.481,0.633c-0.248-0.083-0.128-0.099-0.388-0.085
						c0.029,0.089,0.416,0.012,0.473,0.19c-0.145,0.043-0.276,0.156-0.554,0.148v-0.163c-0.362,0.051-0.007,0.21-0.077,0.29
						l-0.153-0.025c0.026,0.252,0.418,0.292,0.365,0.556l0.119-0.017c0.374,0.181-0.229,0.102,0.045,0.274l-0.396,0.008
						c0.085,0.105,0.349,0.372,0.406,0.551c-0.282-0.125-0.413-0.34-0.574-0.481c-0.012,0.095-0.001,0.327,0.188,0.394
						c-0.033-0.042-0.126-0.099-0.062-0.131c0.298,0.146,0.436,0.313,0.411,0.503c-0.759-0.105-0.238,0.477-0.842,0.56
						c0.25,0.362-0.183,0.657-0.174,1.053c0.605-0.084,0.007,0.116,0.617,0.148c0.03,0.095,0.018,0.129-0.022,0.133l-0.391,0.243
						c-0.183,0.05-0.126-0.099-0.264-0.103c-0.065,0.196-0.266,0.06-0.44,0.178c0.222-0.007,0.307,0.098,0.213,0.205l0.296-0.135
						c0.298,0.309-0.534,0.195-0.239,0.506l-0.185-0.106c0.101,0.155-0.053,0.534,0.424,0.72c-0.073,0.019-0.242,0.038-0.28-0.03
						c-0.104,0.341,0.455,0.819,0.131,1.062l-0.146-0.039c0.037,0.069,0.271,0.137,0.113,0.205
						c-0.061-0.009-0.146-0.039-0.158-0.009c0.049,0.039,0.247,0.194,0.152,0.272l-0.161-0.087
						c-0.224,0.323,0.364,0.554,0.443,0.845c-0.439-0.036-0.604,0.219-0.687,0.347l-0.062-0.01c-0.089,0.391,0.316,0.702,0.462,1.08
						c-0.492,0.194-0.251,0.757-0.543,1.107c0.084-0.051,0.342,0.03,0.382,0.098c-0.095,0.081,0.289,0.255-0.113,0.218l0.01-0.03
						c-0.399,0.041-0.307,0.225-0.326,0.362l0.525,0.053c-0.792,0.319,0.24,0.961-0.456,1.125c0.128,0.093,0.121,0.202,0.25,0.293
						l-0.283-0.016c-0.082,0.24-0.123,0.36-0.067,0.663l-0.2-0.068c-0.025,0.169,0.808,0.241,0.817,0.396l-0.424,0.034
						c-0.006,0.294-0.391,0.585-0.005,0.886c-0.063-0.006-0.185-0.017-0.201-0.065c-0.012,0.139-0.289,0.537,0.291,0.494
						c-0.377-0.001-0.039,0.306,0.127,0.466l-0.279-0.027c0.355,0.137,0.453,0.142,0.55,0.329c-0.037,0.044-0.223,0.039-0.15-0.021
						c-0.147,0.148,0.263,0.116,0.113,0.295l-0.178-0.067c-0.021,0.152,0.073,0.141,0.28,0.224c0.111,0.095-0.072,0.288-0.324,0.313
						c0.153,0.019,0.358,0.101,0.285,0.191c-0.095,0.013-0.154-0.019-0.183-0.035c-0.193,0.257,0.321,0.374,0.057,0.553
						c-0.092,0.005-0.138,0.018-0.165,0.033c-0.003-0.203,0.011-0.367,0.033-0.352c-0.257,0.003-0.303,0.168-0.657,0.042
						c0.194,0.131,0.626,0.349,0.511,0.511c-0.023,0.008-0.049,0.017-0.088,0.023l-0.03-0.016c-0.023,0.038,0.001,0.07,0.046,0.101
						c-0.04,0.052-0.07,0.086-0.072,0.135c-0.211,0.025-0.107,0.193-0.115,0.275c0.281-0.016,0.24,0.093,0.468-0.015
						c-0.02,0.014-0.034-0.015-0.048-0.068c-0.009-0.012-0.013-0.026-0.03-0.034l0.025,0.005c-0.01-0.053-0.019-0.123-0.026-0.203
						c0.146,0.061,0.269,0.125,0.115,0.219c0.183,0.04,0.369,0.08,0.458,0.1c-0.388,0.123-0.591,0.347-0.832,0.387
						c0.167,0.244,0.126,0.587,0.66,0.716c0.07,0.067-0.148,0.089-0.23,0.12c-0.055-0.038-0.048-0.087-0.125-0.105
						c0.142,0.135,0.069,0.418,0.438,0.43c-0.159,0.188-0.343-0.08-0.273,0.162l-0.113-0.026c-0.556,0.528,1.007,0.714,0.298,1.305
						c0.043-0.041,0.063-0.061,0.124-0.074c-0.271,0.641,0.41,1.216-0.031,1.875c-0.08,0.184,0.157,0.172,0.35,0.251l-0.294,0.077
						l0.373,0.13c0.29,0.211-0.667,0.541-0.142,0.788l0.195-0.072c-0.021,0.12,0.173,0.34-0.062,0.359
						c0.039,0.005,0.214,0.003,0.117,0.064l-0.155,0.029l0.311,0.234c-0.08,0.236-0.624,0.073-0.605,0.397
						c0.079,0.109,0.504,0.254,0.602,0.19c0-0.049,0.079-0.139,0.233-0.171l0.098,0.092c0.461-0.065,0.94-0.075,1.223-0.387
						l-0.307-0.127l0.214-0.097l0.036,0.146c0.196-0.122,0.003-0.142-0.134-0.18c0.116-0.035,0.195-0.074,0.234-0.117l-0.465-0.099
						c0.177-0.051,0.368,0.018,0.45-0.115c-0.217-0.047-0.392,0.146-0.545,0.033c0.194-0.12,0.369-0.123,0.176-0.193
						c0.116-0.033,0.194-0.024,0.253,0.006c-0.155-0.065-0.096-0.224-0.347-0.231c0.244-0.128-0.113-0.29,0.323-0.347
						c-0.107-0.012-0.365-0.105-0.396-0.184c0.545,0.074-0.017-0.31,0.55-0.347c-0.487-0.045-0.269-0.366-0.56-0.528
						c0.038,0.006,0.117,0.019,0.096,0.039c0.021-0.114,0.161-0.163,0.244-0.245c-0.392,0.032-0.495-0.13-0.744-0.197
						c0.363-0.178,0.465,0.031,0.822-0.052c-0.315,0.043-0.336-0.2-0.596-0.125c0.224-0.129,0.104-0.102,0.423-0.19
						c-0.488,0.033-0.091-0.087-0.397-0.143c0.227-0.175,0.453-0.084,0.29-0.234C95.572,40.728,95.758,40.856,95.758,40.856z
						 M94.675,36.974h0.005c0.008,0.034,0.015,0.063,0.02,0.082C94.695,37.038,94.688,37.015,94.675,36.974z M94.658,36.64
						c-0.011,0.041-0.011,0.091-0.007,0.145c-0.096,0.014-0.196,0.002-0.192-0.031C94.525,36.771,94.578,36.69,94.658,36.64z
						 M92.738,37.402c-0.042-0.054,0.014-0.073,0.07-0.083c0.006,0.026,0.018,0.056,0.038,0.095l0.035,0.005
						C92.826,37.416,92.775,37.411,92.738,37.402z"/>
					<path fill="#EAC800" d="M93.11,37.489c0.008,0.007,0.02,0.012,0.021,0.021c0.023-0.013,0.044-0.024,0.062-0.034l-0.089-0.017
						L93.11,37.489z"/>
					<path fill="#EAC800" d="M95.063,6.829l-0.006,0.007c0.011-0.006,0.021-0.012,0.04-0.017
						C95.082,6.824,95.074,6.826,95.063,6.829z"/>
					<polygon fill="#EAC800" points="95.284,32.033 95.213,32.03 95.274,32.062 					"/>
					<path fill="#EAC800" d="M95.921,4.91c0.023-0.005,0.049-0.014,0.07-0.03C95.972,4.883,95.948,4.896,95.921,4.91z"/>
					<path fill="#EAC800" d="M95.918,4.093l0.09-0.124C95.956,4.024,95.932,4.063,95.918,4.093z"/>
					<path fill="#EAC800" d="M96.006,3.455c-0.05,0-0.086,0-0.121,0l-0.002,0.001L96.006,3.455z"/>
					<path fill="#EAC800" d="M96.519,13.421c0.001,0.008,0.004,0.017,0.012,0.024C96.582,13.505,96.563,13.465,96.519,13.421z"/>
					<path fill="#EAC800" d="M95.949,10.446c0.051,0.032,0.101,0.063,0.132,0.097C96.103,10.491,96.109,10.45,95.949,10.446z"/>
					<polygon fill="#EAC800" points="96.66,16.744 96.655,16.743 96.653,16.764 					"/>
					<path fill="#EAC800" d="M96.075,10.68c0.057-0.052,0.044-0.096,0.006-0.137C96.062,10.585,96.033,10.636,96.075,10.68z"/>
					<path fill="#EAC800" d="M95.791,0.732L95.798,0.7c-0.019,0.003-0.033,0.004-0.045,0.003L95.791,0.732z"/>
					<path fill="#EAC800" d="M95.753,0.703l-0.038-0.028C95.717,0.69,95.722,0.703,95.753,0.703z"/>
					<path fill="#EAC800" d="M95.636,0.616l0.08,0.059C95.713,0.65,95.717,0.619,95.636,0.616z"/>
					<path fill="#EAC800" d="M95.775,1.577l0.104-0.004C95.856,1.57,95.823,1.571,95.775,1.577z"/>
					<path fill="#EAC800" d="M95.839,1.824c0.015-0.063,0.195-0.179,0.12-0.254l-0.082,0.003C96.034,1.592,95.661,1.79,95.839,1.824
						z"/>
					<path fill="#EAC800" d="M94.73,3.007l0.054-0.214c-0.104,0.048-0.242,0.111-0.28,0.021C94.216,3.108,94.737,2.734,94.73,3.007z
						"/>
					<path fill="#EAC800" d="M94.628,3.662c-0.06-0.105-0.157,0.017-0.218,0.017C94.514,3.739,94.54,3.754,94.628,3.662z"/>
					<path fill="#EAC800" d="M94.885,8.284l-0.256-0.006C94.668,8.362,94.728,8.277,94.885,8.284z"/>
					<polygon fill="#EAC800" points="96.218,9.165 96.377,9.079 96.144,9.04 					"/>
					<polygon fill="#EAC800" points="94.391,9.694 94.355,9.656 94.446,9.799 					"/>
					<path fill="#EAC800" d="M94.13,17.467l0.315-0.001C94.396,17.403,94.043,17.363,94.13,17.467z"/>
					<path fill="#EAC800" d="M94.158,20.864c-0.16,0.022-0.271,0.108-0.121,0.181C94.066,20.971,94.195,20.907,94.158,20.864z"/>
					<polygon fill="#EAC800" points="92.798,31.006 92.697,30.932 92.777,31.066 					"/>
				</g>
			</g>
		</g>
	</g>
</g>
<g>
	<g>
		<g>
			<g>
				<g>
					<path fill="#EAC800" d="M97.256,192.103c0.082,0.035,0.278,0.049,0.246-0.021l-0.323-0.09L97.256,192.103z"/>
					<path fill="#EAC800" d="M97.91,191.75c-0.151-0.097-0.423-0.217-0.729-0.206c0.308,0.114,0.174,0.115,0.542,0.243
						c0.032,0.069-0.117,0.099-0.237,0.071c0.082,0.033-0.083,0.091,0.12,0.152c0.264-0.051,0.284-0.156,0.086-0.294
						C97.766,191.703,97.85,191.737,97.91,191.75z"/>
					<path fill="#EAC800" d="M98.823,185.429l-0.038,0.041C98.806,185.458,98.818,185.442,98.823,185.429z"/>
					<path fill="#EAC800" d="M98.918,181.461c0.009,0.028,0.042,0.041,0.073,0.041C98.968,181.476,98.947,181.453,98.918,181.461z"
						/>
					<path fill="#EAC800" d="M99.255,180.763c-0.008,0.018-0.014,0.028-0.021,0.043C99.264,180.787,99.28,180.771,99.255,180.763z"
						/>
					<path fill="#EAC800" d="M98.823,185.429l0.104-0.105C98.819,185.313,98.847,185.377,98.823,185.429z"/>
					<path fill="#EAC800" d="M97.207,190.795c0.013,0.022,0.042,0.044,0.081,0.063c-0.013-0.019-0.022-0.037-0.029-0.055
						L97.207,190.795z"/>
					<path fill="#EAC800" d="M99.055,187.185l-0.001,0.032c0.038,0.009,0.083,0.021,0.133,0.032L99.055,187.185z"/>
					<path fill="#EAC800" d="M99.041,188.535c0.014-0.03-0.268-0.058-0.39-0.076c0.115,0.022,0.169,0.049,0.189,0.077
						C98.895,188.54,98.958,188.54,99.041,188.535z"/>
					<path fill="#EAC800" d="M98.371,190.619l0.034,0.041C98.396,190.647,98.383,190.634,98.371,190.619z"/>
					<path fill="#EAC800" d="M99.152,186.222c0.042,0,0.079-0.006,0.102-0.01C99.218,186.211,99.184,186.215,99.152,186.222z"/>
					<path fill="#EAC800" d="M94.839,148.972c0.02,0.002,0.032,0.004,0.05,0.006C94.861,148.966,94.842,148.961,94.839,148.972z"/>
					<polygon fill="#EAC800" points="96.405,147.603 96.417,147.626 96.572,147.653 					"/>
					<path fill="#EAC800" d="M99.525,179.499l-0.005,0.006C99.555,179.535,99.548,179.517,99.525,179.499z"/>
					<path fill="#EAC800" d="M98.088,168.235c-0.233,0.158-0.346-0.166-0.6,0.06C97.596,168.265,97.946,168.413,98.088,168.235z"/>
					<path fill="#EAC800" d="M97.247,190.765c-0.001-0.018-0.002-0.035,0.003-0.054C97.238,190.733,97.237,190.751,97.247,190.765z"
						/>
					<path fill="#EAC800" d="M97.489,168.295h-0.002l-0.023,0.022C97.474,168.31,97.48,168.304,97.489,168.295z"/>
					<path fill="#EAC800" d="M99.115,176.657c-0.049,0.011-0.085,0.025-0.119,0.041C99.024,176.694,99.059,176.685,99.115,176.657z"
						/>
					<path fill="#EAC800" d="M98.903,178.813l0.034-0.057C98.913,178.78,98.906,178.798,98.903,178.813z"/>
					<path fill="#EAC800" d="M98.611,175.601c0.02-0.031,0.057-0.045,0.016-0.08c-0.015,0.006-0.023,0.012-0.033,0.016
						C98.632,175.546,98.652,175.563,98.611,175.601z"/>
					<path fill="#EAC800" d="M98.486,174.46c-0.02,0.012-0.035,0.02-0.054,0.027l0.02,0.035L98.486,174.46z"/>
					<path fill="#EAC800" d="M94.691,152.528c0.081-0.022,0.168-0.034,0.255-0.043C94.746,152.495,94.685,152.319,94.691,152.528z"
						/>
					<path fill="#EAC800" d="M97.364,190.812c-0.069-0.015-0.104-0.027-0.116-0.047c0.002,0.014,0.006,0.026,0.011,0.039
						C97.299,190.812,97.339,190.815,97.364,190.812z"/>
					<path fill="#EAC800" d="M96.401,175.786l0.023-0.184C96.402,175.655,96.395,175.722,96.401,175.786z"/>
					<path fill="#EAC800" d="M94.958,160.842l-0.037-0.038C94.917,160.819,94.926,160.833,94.958,160.842z"/>
					<path fill="#EAC800" d="M96.328,175.078c0.095-0.043,0.147-0.083,0.181-0.123c-0.023-0.005-0.042-0.011-0.074-0.013
						L96.328,175.078z"/>
					<path fill="#EAC800" d="M94.95,152.485h-0.004H94.95z"/>
					<path fill="#EAC800" d="M94.354,151.228c-0.019,0.178,0.356,0.105,0.565,0.158c0.093,0.217-0.277,0.079-0.47,0.141
						c0.09,0.139,0.422,0.259,0.401,0.354c-0.061,0.005-0.084,0.021-0.159-0.005c0.285,0.154-0.01,0.414,0.351,0.592
						c-0.033,0.012-0.065,0.016-0.093,0.018c0.187-0.019,0.375-0.014,0.508-0.004c0.002,0.078,0.225,0.154-0.019,0.174
						c0.011-0.047-0.087-0.055-0.161-0.08l0.101,0.086c-0.352,0.061-0.113-0.116-0.37-0.127c0.104,0.166,0.38,0.361,0.275,0.48
						c-0.342,0.016-0.099-0.291-0.409-0.138l0.141-0.187c-0.544,0.127,0.044-0.114-0.537-0.002c-0.111,0.25,0.153,0.289,0.056,0.537
						c0.188,0.063,0.278-0.011,0.467,0.051c0.337,0.361-0.855,0.263-0.405,0.533c0.226,0.072,0.655,0.104,0.427,0.287l-0.384-0.068
						c-0.04,0.244,0.551,0.146,0.292,0.396c-0.151-0.046-0.126-0.191-0.172-0.154c-0.304,0.162,0.217,0.117,0.216,0.244l-0.34,0.024
						c0.052,0.26,0.296,0.545,0.356,0.829c-0.102-0.016-0.207-0.063-0.313,0.006c0.161,0.359-0.031,0.771-0.219,1.127l0.298,0.124
						c-0.002,0.03-0.13,0.062-0.188,0.03c-0.105,0.139,0.187,0,0.305,0.063c0.022,0.076-0.165,0.107-0.254,0.063
						c0.258,0.232,0.562,0.66,0.257,0.925l-0.089-0.045c-0.111,0.202,0.608,0.192,0.343,0.388l-0.053-0.031
						c-0.117,0.433,0.186,0.881-0.231,1.232c0.426,0.033-0.157,0.432,0.433,0.419c-0.273,0.261-0.384,0.199-0.555,0.556
						c-0.021,0.094,0.377,0.107,0.446,0.215l-0.308,0.026l0.334,0.128l-0.361,0.11l0.086,0.101c0.015-0.045,0.132-0.102,0.22-0.103
						c0.151,0.151-0.184,0.419-0.341,0.437l0.292,0.366c-0.125,0.003-0.173-0.06-0.257-0.103c0.334,0.179-0.32,0.065-0.015,0.229
						c0.067-0.03,0.185-0.003,0.247-0.004c-0.176,0.11-0.156,0.327-0.063,0.479l-0.215-0.012c-0.025,0.293,0.162,0.598,0.189,0.922
						c0.087-0.127,0.457-0.137,0.501-0.045l-0.319,0.069c0.206,0.041,0.111-0.11,0.369-0.011c-0.024,0.123-0.359,0.117-0.473,0.06
						l0.127,0.136c-0.096,0.02-0.149-0.011-0.273-0.006c0.208,0.038-0.301,0.286,0.058,0.338l-0.095,0.019
						c0.029,0.323,0.152,0.459,0.2,0.719c0.279-0.026,0.229,0.083,0.465,0.136c-0.067,0.202-0.263,0.439-0.211,0.67
						c0.157,0.146,0.242,0.021,0.417,0.073c-0.252,0.041-0.202,0.271-0.399,0.171c0.074,0.273,0.092,0.35,0.34,0.676
						c0.101-0.051,0.141-0.099,0.229-0.086c0.049,0.059-0.09,0.156-0.213,0.162l-0.028-0.014c0.427,0.348-0.636,1-0.065,1.247
						l-0.027-0.015l0.316,0.291c-0.024,0.154-0.202-0.066-0.346,0.063c0.468,0.298,0.008,0.561,0.327,0.813
						c-0.722,0.316,0.151,0.785-0.289,1.146l0.175-0.04c0.183,0.056-0.089,0.106-0.123,0.169c0.136-0.025,0.148-0.104,0.25-0.066
						c0.295,0.629-0.088,1.387-0.163,2.078c-0.017,0.252,0.932,0.026,0.548,0.39l-0.339-0.048c0.458,0.449,0.106,1.015,0.498,1.459
						c-0.079-0.02-0.177-0.008-0.182-0.057c-0.228,0.131,0.032,0.381,0.227,0.359c-0.013,0.078-0.174,0.038-0.267,0.096
						c-0.129,0.119,0.334,0.223,0.104,0.305c-0.038,0.015-0.081-0.02-0.101-0.035c0.123,0.054,0.007,0.313,0.274,0.22
						c-0.11,0.196,0.162,0.334,0.017,0.497c0.319,0.063-0.111,0.328,0.326,0.311c-0.451,0.036-0.331,0.357-0.108,0.45
						c-0.14-0.022-0.131,0.115-0.324,0.091c0.021,0.129,0.115,0.24,0.345,0.193c-0.515,0.297,0.481,0.441-0.194,0.646
						c0.281,0.365,0.48,0.713,0.621,1.053c-0.451,0.029-0.083-0.383-0.554-0.323c0.216,0.313,0.629,0.472,0.542,0.812
						c-0.056,0.092-0.199-0.031-0.277-0.054c0.21,0.315,0.007,0.646,0.274,0.921c-0.042,0.004-0.091-0.025-0.126-0.053
						c0.019,0.057-0.057,0.141,0.147,0.118l-0.06-0.054c0.29-0.115,0.637,0.186,0.794,0.185c-0.594-0.056-0.125,0.306-0.878,0.201
						c0.042,0.036,0.142,0.077,0.277,0.058c-0.036,0.061-0.113,0.084-0.273,0.038c0.127,0.2,0.339,0.11,0.348,0.302
						c-0.099,0.006-0.14-0.029-0.258-0.041c0.2,0.082,0.399,0.166,0.329,0.332c-0.062-0.007-0.138,0.018-0.14-0.031
						c0.05,0.272,0.555,0.438,0.382,0.752c-0.435-0.064-0.138,0.111-0.51,0.146l0.118,0.156l0.178-0.075
						c0,0.144,0.276,0.254,0.159,0.384l-0.158-0.099l0.082,0.263l0.136-0.158c0.197,0.137,0.471-0.037,0.375,0.157
						c-0.039-0.036,0.001,0.144-0.215,0.228h-0.002c0.122,0.066,0.25,0.134,0.162,0.242c-0.117,0.033-0.414-0.004-0.491,0.018
						c0.313,0.057,0.101,0.329,0.437,0.404c-0.08-0.025-0.275-0.021-0.314-0.01l0.256,0.051c-0.078,0.067-0.117,0.08-0.274,0.074
						c-0.038,0.199,0.471-0.08,0.277,0.164c-0.021-0.02-0.06-0.009-0.1-0.045c-0.097,0.238,0.181,0.452,0.064,0.674
						c-0.373,0.072-0.101-0.188-0.414-0.106c0.088,0.312,0.456,0.639,0.372,0.944l0.042-0.059c0.53,0.037-0.262,0.229-0.012,0.381
						c-0.039-0.037-0.294-0.048-0.235-0.037c-0.085,0.207,0.13,0.422,0.297,0.738l-0.136-0.04c-0.122,0.122-0.07,0.321-0.132,0.453
						c0.136,0.041,0.113,0.116,0.312,0.073c-0.771,0.394,0.415,0.789-0.256,1.134c0.001-0.043-0.114-0.106-0.116-0.071l0.11,0.311
						c0.231-0.016,0.142-0.034,0.325-0.094c0.135,0.045,0.236,0.135,0.232,0.213c-0.146-0.146-0.371-0.014-0.502,0.041
						c0.071-0.008,0.148,0.017,0.22,0.015c-0.418,0.146,0.464,0.046,0.177,0.256l-0.121-0.019c0.058,0.086,0.215,0.17,0.176,0.258
						c-0.269,0.023-0.121-0.094-0.34-0.11c0.009,0.125,0.494,0.272,0.222,0.372c-0.072-0.059-0.068-0.134-0.141-0.189
						c-0.319,0.105-0.241,0.125-0.294,0.213l0.007-0.008l-0.152,0.201l0.087-0.049c0.688,0.196,0.112,0.323,0.558,0.563
						c-0.421-0.232-0.248-0.049-0.549-0.086c-0.087,0.049-0.186,0.123-0.269,0.095c0.239,0.114-0.2,0.149,0.149,0.315
						c-0.098-0.002-0.016,0.104-0.259,0.063c0.064,0.133,0.174-0.019,0.293,0.002c0.313,0.226-0.451,0.429-0.024,0.751
						c0.162,0.262,0.484,0.338,0.623,0.585c-0.163,0.062-0.347-0.101-0.347-0.101c-0.156,0.111-0.141,0.207-0.041,0.336
						c-0.082-0.033-0.156-0.016-0.27,0.008c0.016,0.096,0.347,0.102,0.19,0.209c-0.106-0.033-0.276-0.079-0.379-0.137
						c0.077,0.119,0.247,0.248,0.322,0.373c-0.172,0.012-0.249-0.099-0.354-0.15c0.063,0.137,0.119,0.35,0.381,0.421l0.104-0.069
						c0.008,0.047-0.231-0.004-0.276-0.045c-0.198-0.135,0.108-0.148,0.207-0.143l0.054,0.089c0.577-0.019-0.057-0.34-0.007-0.499
						l0.406,0.113l-0.325-0.206c0.11-0.024,0.345-0.024,0.397,0.063c0.217-0.099-0.136-0.121,0.104-0.199
						c0.037-0.008,0.056-0.002,0.071,0.012l-0.111-0.129c0.085,0.031,0.294,0.01,0.227,0.074c0.262-0.187-0.274-0.367,0.047-0.416
						l0.024,0.021c-0.11-0.304-0.301-0.058-0.636-0.306l0.766-0.082l-0.301-0.053c0.014-0.029,0.043-0.088,0.164-0.065
						c-0.197-0.129-0.134,0.008-0.324-0.072c0.294-0.122-0.09-0.405,0.394-0.401c-0.229-0.069-0.186,0.125-0.339-0.041
						c0.524-0.008-0.081-0.186,0.165-0.301c0.269,0.059,0.119,0.176,0.366,0.059c-0.452-0.109,0.112-0.252,0.03-0.369
						c-0.362-0.027-0.139-0.252-0.251-0.446c0.121,0.019,0.216-0.342,0.355-0.512l0.062,0.008c-0.365-0.05-0.287-0.228-0.357-0.36
						c0.22,0.015,0.306,0.041,0.4,0.115l0.004-0.123c-0.116-0.033-0.176-0.074-0.214-0.156l0.271,0.041
						c-0.007-0.166-0.307-0.342-0.112-0.549c-0.256-0.018-0.722,0.147-0.881-0.076c0.139-0.006,0.376-0.008,0.43,0.053
						c-0.018-0.02-0.112-0.071-0.051-0.108l0.229,0.095c0.106-0.094-0.189-0.055-0.168-0.131c0.197,0.006,0.141-0.054,0.297-0.039
						c0.02,0.021-0.081,0.065-0.005,0.098c0.037-0.086,0.153-0.188,0.303-0.221c-0.111,0.006-0.266-0.006-0.292-0.07
						c-0.014-0.163,0.238-0.051,0.339-0.146c-0.137-0.042,0.006-0.146-0.289-0.151c0.001-0.049,0.139-0.055,0.219-0.072
						c-0.13-0.088-0.037-0.398-0.352-0.305l-0.021,0.021l-0.013-0.015l0,0l0,0c-0.293-0.278,0.167-0.576,0.041-0.854h0.099
						c-0.113-0.163-0.066-0.366-0.279-0.481c0-0.049,0.181-0.116,0.298-0.098c-0.074-0.125-0.186-0.138-0.021-0.322
						c0.172,0.123,0.153-0.047,0.126,0.129c0.084-0.166,0.246-0.207-0.029-0.377c0.255,0.054,0.313-0.133,0.234-0.209l-0.176,0.121
						c-0.041-0.088-0.021-0.164-0.004-0.242l0.334,0.033c0.392-0.352-0.713-0.584-0.047-0.863c-0.235-0.08-0.155,0.188-0.431,0.119
						c0.038-0.155,0.509-0.336,0.508-0.385c0.175-0.222-0.494-0.178-0.377-0.404c-0.117,0.033-0.433,0.074-0.551-0.084
						c0.038-0.154,0.489-0.213,0.588-0.121c0.012,0.037-0.025,0.057-0.065,0.058c0.046,0.048,0.1,0.11,0.226,0.043l-0.119-0.014
						c0.118-0.083,0.096-0.296,0.292-0.255c-0.118-0.112-0.196-0.041-0.254,0.05c0.164-0.208-0.008-0.312,0.099-0.521
						c-0.063,0.035-0.202,0.073-0.202,0.041c0.135-0.309-0.229-0.119-0.295-0.316c0.173-0.127,0.435,0.015,0.269-0.18
						c0.113-0.133,0.313-0.047,0.413-0.002c-0.242-0.172,0.125-0.357,0.158-0.467l0.103,0.092c-0.062-0.057-0.063-0.104-0.066-0.152
						l-0.231,0.072c0.037-0.062,0.034-0.109,0.133-0.115c-0.16-0.049-0.391,0.072-0.611-0.03c0.115-0.085-0.146-0.224,0.166-0.272
						c-0.088,0.248,0.314-0.049,0.38,0.151c-0.041-0.036-0.043-0.085-0.005-0.146c0.034-0.012,0.065,0.004,0.085,0.019
						c0.264-0.252-0.362-0.081-0.374-0.319c0.18,0.017,0.332-0.082,0.291-0.117c0.003,0.097-0.292,0.067-0.434-0.01
						c0.126-0.164-0.115-0.158-0.105-0.24l-0.058,0.098c-0.179-0.018-0.162-0.096-0.225-0.197c0.137-0.021,0.102,0.09,0.16,0.047
						c-0.32-0.094,0.302-0.293,0.08-0.441c0.114-0.086,0.332-0.034,0.408-0.108c-0.243-0.166,0.229-0.222,0.023-0.399
						c-0.234,0.076-0.174,0.08-0.417-0.035l0.191,0.306l-0.36-0.176c0.004,0.097,0.165,0.19,0.128,0.252
						c-0.201-0.081-0.142-0.076-0.335-0.015c0.346-0.162-0.226-0.242-0.001-0.414l0.589-0.049c0.239-0.252-0.342-0.377-0.224-0.688
						l-0.094,0.104c-0.237-0.018-0.051-0.18-0.154-0.267c0.196-0.01,0.263-0.077,0.381-0.13c-0.146,0.02-0.008-0.219-0.403-0.207
						l0.246-0.157c0.082-0.251-0.587-0.217-0.543-0.452c0.22,0.047,0.349-0.072,0.517,0.066c-0.006-0.077,0.023-0.15-0.112-0.139
						c0.118-0.058-0.286-0.185-0.106-0.274c-0.089-0.022-0.296-0.013-0.289-0.101c0.039-0.014,0.097-0.01,0.097-0.01
						c-0.097,0.01-0.146-0.119-0.354-0.021c0.591-0.303-0.115-0.652,0.387-0.916c-0.085-0.159-0.172-0.354-0.204-0.504
						c0.061,0.005,0.099-0.01,0.081,0.021c0.158-0.229-0.578-0.063-0.401-0.324c0.303-0.158,0.186,0.106,0.297,0.018
						c0.642-0.107-0.122-0.275,0.236-0.48l0.042,0.034c0.205-0.147-0.278-0.271-0.256-0.476c0,0,0.06,0.004,0.099-0.01
						c-0.346-0.098-0.484-0.342-0.599-0.522c0.26,0.028,0.145,0.071,0.396,0.003c-0.047-0.082-0.409,0.075-0.501-0.087
						c0.131-0.072,0.235-0.211,0.508-0.261l0.035,0.158c0.344-0.125-0.038-0.207,0.013-0.299l0.156-0.01
						c-0.082-0.24-0.472-0.195-0.479-0.467l-0.113,0.042c-0.404-0.097,0.202-0.147-0.104-0.259l0.386-0.092
						c-0.105-0.084-0.421-0.289-0.516-0.453c0.303,0.063,0.478,0.244,0.665,0.349c-0.009-0.097-0.069-0.319-0.269-0.347
						c0.043,0.035,0.145,0.07,0.089,0.115c-0.323-0.078-0.493-0.213-0.511-0.402c0.764-0.063,0.13-0.518,0.702-0.729
						c-0.322-0.302,0.037-0.681-0.057-1.064c-0.574,0.213-0.031-0.111-0.635-0.012c-0.05-0.086-0.045-0.121-0.006-0.136l0.327-0.319
						c0.168-0.088,0.146,0.069,0.279,0.045c0.022-0.205,0.247-0.116,0.393-0.269c-0.214,0.054-0.319-0.03-0.251-0.153l-0.261,0.193
						c-0.357-0.236,0.479-0.303,0.125-0.543l0.202,0.064c-0.131-0.129-0.063-0.53-0.567-0.611c0.066-0.033,0.229-0.088,0.279-0.029
						c0.032-0.352-0.607-0.699-0.339-1.003l0.151,0.009c-0.05-0.059-0.292-0.078-0.152-0.176c0.063-0.004,0.151,0.008,0.157-0.021
						c-0.055-0.028-0.28-0.141-0.204-0.234l0.176,0.053c0.155-0.354-0.467-0.466-0.602-0.734c0.438-0.049,0.549-0.327,0.604-0.467
						l0.063-0.002c0.006-0.395-0.432-0.619-0.641-0.963c0.453-0.271,0.124-0.775,0.355-1.16c-0.074,0.063-0.342,0.022-0.394-0.037
						c0.08-0.092-0.327-0.205,0.076-0.229l-0.004,0.03c0.388-0.101,0.267-0.263,0.263-0.397l-0.527,0.023
						c0.729-0.419-0.353-0.903,0.317-1.15c-0.138-0.076-0.144-0.182-0.281-0.257l0.282-0.017c0.056-0.24,0.082-0.36-0.007-0.646
						l0.206,0.047c0.007-0.166-0.83-0.154-0.856-0.307l0.418-0.072c-0.028-0.287,0.319-0.598-0.069-0.859
						c0.063,0.002,0.184,0.004,0.203,0.05c0.006-0.136,0.266-0.533-0.313-0.458c0.377-0.021,0.025-0.297-0.146-0.446l0.28,0.013
						c-0.361-0.115-0.458-0.117-0.564-0.297c0.035-0.045,0.221-0.046,0.152,0.014c0.141-0.148-0.269-0.104-0.126-0.285l0.181,0.063
						c0.016-0.15-0.08-0.136-0.29-0.212c-0.115-0.091,0.061-0.286,0.312-0.313c-0.154-0.016-0.363-0.094-0.293-0.184
						c0.095-0.014,0.154,0.018,0.185,0.032c0.178-0.252-0.338-0.364-0.061-0.54c0.092-0.005,0.139-0.018,0.167-0.031
						c-0.011,0.197-0.021,0.356-0.041,0.342c0.257-0.004,0.296-0.164,0.654-0.045c-0.196-0.121-0.613-0.334-0.493-0.49
						c0.025-0.008,0.05-0.016,0.09-0.021l0.028,0.016c0.026-0.035,0.002-0.066-0.041-0.097c0.042-0.05,0.074-0.081,0.078-0.129
						c0.212-0.021,0.116-0.183,0.126-0.261c-0.281,0.007-0.234-0.098-0.468,0c0.02-0.014,0.034,0.015,0.045,0.068
						c0.008,0.012,0.013,0.024,0.029,0.033l-0.024-0.006c0.008,0.053,0.014,0.12,0.019,0.197c-0.144-0.063-0.263-0.128-0.105-0.217
						c-0.18-0.043-0.365-0.09-0.453-0.11c0.394-0.11,0.606-0.317,0.849-0.347c-0.156-0.242-0.102-0.567-0.629-0.731
						c-0.066-0.069,0.152-0.075,0.235-0.101c0.053,0.041,0.044,0.089,0.121,0.111c-0.135-0.142-0.051-0.41-0.419-0.453
						c0.167-0.17,0.339,0.106,0.28-0.133l0.111,0.034c0.606-0.442-0.897-0.803-0.113-1.29c-0.049,0.033-0.071,0.051-0.134,0.055
						c0.375-0.569-0.255-1.254,0.336-1.791c0.126-0.155-0.105-0.195-0.271-0.314l0.305-0.006l-0.326-0.209
						c-0.224-0.275,0.787-0.342,0.346-0.706l-0.207,0.017c0.052-0.107-0.076-0.371,0.152-0.32c-0.034-0.018-0.206-0.064-0.095-0.096
						l0.157,0.018l-0.235-0.311c0.14-0.197,0.617,0.119,0.685-0.183c-0.046-0.122-0.416-0.396-0.525-0.368
						c-0.013,0.046-0.112,0.104-0.269,0.085l-0.069-0.118c-0.458-0.09-0.919-0.248-1.273-0.027l0.26,0.229l-0.231,0.028l0.005-0.16
						c-0.221,0.059-0.042,0.145,0.078,0.225c-0.121-0.002-0.207,0.014-0.256,0.045l0.418,0.244
						c-0.183-0.002-0.348-0.132-0.463-0.021c0.194,0.113,0.415-0.028,0.532,0.132c-0.221,0.062-0.389,0.013-0.222,0.142
						c-0.121,0-0.193-0.033-0.24-0.082c0.131,0.112,0.03,0.256,0.271,0.336c-0.271,0.062,0.03,0.321-0.407,0.262
						c0.102,0.041,0.324,0.205,0.332,0.291c-0.506-0.215-0.068,0.318-0.627,0.219c0.458,0.165,0.159,0.443,0.397,0.674
						c-0.036-0.016-0.11-0.045-0.083-0.061c-0.056,0.111-0.199,0.134-0.292,0.201c0.39,0.049,0.468,0.235,0.704,0.353
						c-0.386,0.11-0.454-0.123-0.818-0.106c0.317,0.019,0.302,0.271,0.568,0.244c-0.24,0.09-0.119,0.084-0.446,0.116
						c0.487,0.056,0.077,0.108,0.372,0.22c-0.25,0.142-0.46,0.01-0.322,0.193C94.519,151.394,94.354,151.228,94.354,151.228z
						 M95.084,155.369h-0.005c-0.007-0.035-0.013-0.065-0.017-0.084C95.068,155.302,95.074,155.326,95.084,155.369z M95.087,155.712
						c0.011-0.042,0.014-0.094,0.012-0.148c0.097-0.014,0.197-0.002,0.191,0.033C95.226,155.578,95.169,155.659,95.087,155.712z
						 M97.039,154.979c0.04,0.053-0.017,0.069-0.073,0.078c-0.005-0.024-0.014-0.055-0.033-0.093l-0.035-0.006
						C96.952,154.964,97.002,154.97,97.039,154.979z"/>
					<path fill="#EAC800" d="M96.671,154.886c-0.006-0.008-0.019-0.013-0.021-0.021c-0.023,0.013-0.045,0.021-0.063,0.031
						l0.088,0.02L96.671,154.886z"/>
					<path fill="#EAC800" d="M98.778,185.478l0.007-0.008c-0.012,0.006-0.022,0.012-0.04,0.014
						C98.758,185.479,98.767,185.479,98.778,185.478z"/>
					<polygon fill="#EAC800" points="94.792,160.472 94.863,160.465 94.799,160.44 					"/>
					<path fill="#EAC800" d="M97.769,187.315c-0.024,0.002-0.051,0.008-0.073,0.021C97.714,187.337,97.74,187.327,97.769,187.315z"
						/>
					<path fill="#EAC800" d="M97.667,188.108l-0.105,0.107C97.621,188.171,97.649,188.138,97.667,188.108z"/>
					<path fill="#EAC800" d="M97.498,188.713c0.049,0.009,0.086,0.015,0.12,0.021l0.002-0.002L97.498,188.713z"/>
					<path fill="#EAC800" d="M97.032,179.002c-0.003-0.009-0.008-0.017-0.016-0.022C96.959,178.929,96.983,178.964,97.032,179.002z"
						/>
					<path fill="#EAC800" d="M97.866,181.862c-0.053-0.027-0.104-0.057-0.138-0.088C97.71,181.828,97.707,181.869,97.866,181.862z"
						/>
					<polygon fill="#EAC800" points="96.398,175.806 96.403,175.806 96.401,175.786 					"/>
					<path fill="#EAC800" d="M97.729,181.64c-0.054,0.055-0.04,0.098,0,0.137C97.747,181.731,97.773,181.681,97.729,181.64z"/>
					<path fill="#EAC800" d="M97.125,191.332l-0.016,0.026c0.02,0.002,0.034,0.006,0.044,0.01L97.125,191.332z"/>
					<path fill="#EAC800" d="M97.154,191.368l0.03,0.035C97.186,191.39,97.185,191.377,97.154,191.368z"/>
					<path fill="#EAC800" d="M97.247,191.481l-0.063-0.078C97.181,191.429,97.169,191.456,97.247,191.481z"/>
					<path fill="#EAC800" d="M97.338,190.543l-0.102-0.021C97.258,190.53,97.29,190.537,97.338,190.543z"/>
					<path fill="#EAC800" d="M97.334,190.296c-0.029,0.057-0.231,0.125-0.177,0.212l0.079,0.017
						C97.09,190.472,97.499,190.369,97.334,190.296z"/>
					<path fill="#EAC800" d="M98.697,189.374l-0.103,0.203c0.112-0.028,0.263-0.064,0.279,0.033
						C99.224,189.37,98.625,189.646,98.697,189.374z"/>
					<path fill="#EAC800" d="M98.889,188.731c0.045,0.115,0.157,0.008,0.218,0.019C99.012,188.671,98.988,188.651,98.889,188.731z"
						/>
					<path fill="#EAC800" d="M99.001,184.002l0.256,0.007C99.221,183.922,99.158,184.011,99.001,184.002z"/>
					<polygon fill="#EAC800" points="97.662,183.136 97.506,183.224 97.742,183.257 					"/>
					<polygon fill="#EAC800" points="99.461,182.549 99.499,182.586 99.4,182.442 					"/>
					<path fill="#EAC800" d="M98.757,174.636l-0.311,0.061C98.51,174.748,98.863,174.722,98.757,174.636z"/>
					<path fill="#EAC800" d="M98.036,171.291c0.15-0.056,0.239-0.163,0.079-0.203C98.103,171.167,97.99,171.258,98.036,171.291z"/>
					<polygon fill="#EAC800" points="97.377,161.16 97.488,161.22 97.389,161.101 					"/>
				</g>
			</g>
		</g>
	</g>
</g>
<ellipse fill="#FFDA00" stroke="#E2A700" stroke-miterlimit="10" cx="95.249" cy="96.419" rx="38.541" ry="37.337"/>
<polygon fill="#FFDA00" stroke="#E2A700" stroke-miterlimit="10" points="25.465,43.826 62.999,49.572 39.408,77.012 "/>
<polygon fill="#FFDA00" stroke="#E2A700" stroke-miterlimit="10" points="163.032,44.327 125.457,49.799 148.848,77.41 "/>
<polygon fill="#FFDA00" stroke="#E2A700" stroke-miterlimit="10" points="161.311,152.979 123.928,146.318 148.182,119.463 "/>
<polygon fill="#FFDA00" stroke="#E2A700" stroke-miterlimit="10" points="31.141,158.936 67.76,148.889 41.154,124.361 "/>
</svg>
