<?xml version="1.0" encoding="UTF-8" standalone="no"?>
<!-- Generator: Adobe Illustrator 16.0.3, SVG Export Plug-In . SVG Version: 6.00 Build 0)  -->

<svg
   xmlns:dc="http://purl.org/dc/elements/1.1/"
   xmlns:cc="http://creativecommons.org/ns#"
   xmlns:rdf="http://www.w3.org/1999/02/22-rdf-syntax-ns#"
   xmlns:svg="http://www.w3.org/2000/svg"
   xmlns="http://www.w3.org/2000/svg"
   xmlns:sodipodi="http://sodipodi.sourceforge.net/DTD/sodipodi-0.dtd"
   xmlns:inkscape="http://www.inkscape.org/namespaces/inkscape"
   version="1.1"
   id="Capa_1"
   x="0px"
   y="0px"
   width="577.06"
   height="74.509003"
   viewBox="0 0 577.06 74.509003"
   enable-background="new 0 0 960 560"
   xml:space="preserve"
   sodipodi:docname="whiteNombre.svg"
   inkscape:version="0.92.4 (5da689c313, 2019-01-14)"><metadata
   id="metadata29"><rdf:RDF><cc:Work
       rdf:about=""><dc:format>image/svg+xml</dc:format><dc:type
         rdf:resource="http://purl.org/dc/dcmitype/StillImage" /><dc:title></dc:title></cc:Work></rdf:RDF></metadata><defs
   id="defs27" /><sodipodi:namedview
   pagecolor="#ffffff"
   bordercolor="#666666"
   borderopacity="1"
   objecttolerance="10"
   gridtolerance="10"
   guidetolerance="10"
   inkscape:pageopacity="0"
   inkscape:pageshadow="2"
   inkscape:window-width="1366"
   inkscape:window-height="705"
   id="namedview25"
   showgrid="false"
   fit-margin-top="0"
   fit-margin-left="0"
   fit-margin-right="0"
   fit-margin-bottom="0"
   inkscape:zoom="0.72708333"
   inkscape:cx="-20.515028"
   inkscape:cy="-0.83778434"
   inkscape:window-x="-8"
   inkscape:window-y="-8"
   inkscape:window-maximized="1"
   inkscape:current-layer="cNombre" />
<g
   id="cNombre"
   transform="translate(-224.346,-269.339)">
	<path
   d="m 268.001,301.106 18.443,0.475 c -1.215,9.548 -4.52,16.927 -9.917,22.131 -5.395,5.208 -12.433,7.811 -21.111,7.811 -8.823,0 -16.208,-2.955 -22.153,-8.87 -5.945,-5.919 -8.917,-13.259 -8.917,-22.023 0,-8.822 3.03,-16.245 9.09,-22.263 6.062,-6.015 13.532,-9.026 22.415,-9.026 8.737,0 16.027,2.951 21.869,8.853 4.05,4.079 6.915,9.766 8.594,17.056 l -18.878,1.258 c -2.111,-6.479 -6.118,-9.719 -12.02,-9.719 -3.761,0 -6.863,1.301 -9.309,3.902 -2.443,2.603 -3.667,5.917 -3.667,9.939 0,3.878 1.202,7.078 3.602,9.611 2.403,2.532 5.44,3.796 9.115,3.796 3.731,0 6.704,-1.111 8.915,-3.339 2.214,-2.229 3.524,-5.426 3.929,-9.592 z"
   id="c1"
   inkscape:connector-curvature="0"
   style="fill:#ffffff;fill-opacity:1" />
	<path
   d="m 322.852,269.34 c 8.388,0 15.587,3.053 21.588,9.158 6.001,6.104 9.004,13.407 9.004,21.912 0,8.651 -3.024,15.999 -9.068,22.044 -6.049,6.049 -13.395,9.068 -22.045,9.068 -8.591,0 -15.926,-3.036 -22.001,-9.11 -6.075,-6.075 -9.112,-13.409 -9.112,-22.002 0,-8.677 3.059,-16.026 9.176,-22.044 6.121,-6.015 13.605,-9.026 22.458,-9.026 z m -0.521,17.447 c -3.615,0 -6.699,1.331 -9.242,3.989 -2.546,2.662 -3.82,5.875 -3.82,9.634 0,3.762 1.279,6.975 3.842,9.634 2.559,2.661 5.631,3.992 9.22,3.992 3.645,0 6.733,-1.323 9.266,-3.969 2.53,-2.647 3.796,-5.867 3.796,-9.657 0,-3.787 -1.266,-7.007 -3.796,-9.654 -2.533,-2.648 -5.621,-3.969 -9.266,-3.969 z"
   id="o"
   inkscape:connector-curvature="0"
   style="fill:#ffffff;fill-opacity:1" />
	<path
   d="m 360.518,330.049 v -42.701 c 0,-5.291 1.607,-9.617 4.817,-12.973 3.21,-3.355 7.376,-5.035 12.498,-5.035 6.075,0 10.745,2.794 14.015,8.375 1.998,-3.007 4.139,-5.158 6.423,-6.443 2.284,-1.287 5.106,-1.933 8.462,-1.933 5.323,0 9.403,1.68 12.237,5.035 2.836,3.356 4.253,8.187 4.253,14.494 v 41.181 h -17.62 v -38.535 c 0,-1.908 -0.151,-3.172 -0.452,-3.796 -0.306,-0.62 -0.921,-0.931 -1.844,-0.931 -1.736,0 -2.605,1.474 -2.605,4.425 v 38.837 h -17.618 v -38.535 c 0,-1.879 -0.158,-3.137 -0.478,-3.773 -0.318,-0.635 -0.938,-0.953 -1.866,-0.953 -1.736,0 -2.605,1.576 -2.605,4.727 v 38.535 h -17.617 z"
   id="m"
   inkscape:connector-curvature="0"
   style="fill:#ffffff;fill-opacity:1" />
	<path
   d="m 453.163,309.568 v -15.536 c 3.559,0 5.341,-1.359 5.341,-4.079 0,-2.488 -1.361,-3.731 -4.083,-3.731 -2.748,0 -4.119,1.707 -4.119,5.12 v 38.707 h -17.619 v -36.886 c 0,-3.817 0.384,-6.948 1.15,-9.395 0.767,-2.444 2.076,-4.722 3.924,-6.834 2.085,-2.343 4.688,-4.192 7.813,-5.554 3.126,-1.36 6.351,-2.041 9.678,-2.041 6.015,0 11.074,2.025 15.167,6.078 4.094,4.049 6.141,9.069 6.141,15.058 0,5.813 -1.837,10.528 -5.515,14.144 -3.354,3.329 -8.418,4.992 -15.184,4.992 z"
   id="p"
   inkscape:connector-curvature="0"
   style="fill:#ffffff;fill-opacity:1" />
	<path
   d="m 525.461,270.817 v 38.403 c 0,6.769 -2.02,12.18 -6.054,16.229 -4.033,4.054 -9.412,6.074 -16.119,6.074 -6.684,0 -11.797,-1.964 -15.339,-5.897 -3.548,-3.937 -5.319,-9.591 -5.319,-16.969 v -37.839 h 17.619 v 37.795 c 0,3.618 1.285,5.424 3.86,5.424 2.489,0 3.732,-1.806 3.732,-5.424 v -37.795 h 17.62 z"
   id="u"
   inkscape:connector-curvature="0"
   style="fill:#ffffff;fill-opacity:1" />
	<path
   d="m 576.234,301.106 18.44,0.475 c -1.216,9.548 -4.52,16.927 -9.914,22.131 -5.394,5.208 -12.436,7.811 -21.112,7.811 -8.823,0 -16.206,-2.955 -22.151,-8.87 -5.944,-5.919 -8.92,-13.259 -8.92,-22.023 0,-8.822 3.03,-16.245 9.094,-22.263 6.058,-6.015 13.532,-9.026 22.415,-9.026 8.736,0 16.025,2.951 21.869,8.853 4.049,4.079 6.91,9.766 8.59,17.056 l -18.877,1.258 c -2.112,-6.479 -6.118,-9.719 -12.02,-9.719 -3.758,0 -6.863,1.301 -9.311,3.902 -2.439,2.603 -3.665,5.917 -3.665,9.939 0,3.878 1.203,7.078 3.602,9.611 2.402,2.532 5.442,3.796 9.113,3.796 3.732,0 6.707,-1.111 8.917,-3.339 2.213,-2.229 3.525,-5.426 3.93,-9.592 z"
   id="c2"
   inkscape:connector-curvature="0"
   style="fill:#ffffff;fill-opacity:1" />
	<path
   d="m 625.53,291.992 v 15.621 h -4.904 v 22.436 h -17.618 v -59.232 h 17.618 v 21.175 z m 20.61,-21.175 v 59.232 h -17.614 v -59.232 z"
   id="h"
   inkscape:connector-curvature="0"
   style="fill:#ffffff;fill-opacity:1" />
	<path
   d="m 679.467,300.323 v 15.623 h -5.075 v 14.103 h -17.619 v -37.666 c 0,-7.289 1.993,-12.954 5.966,-16.99 3.981,-4.034 9.569,-6.053 16.772,-6.053 6.944,0 12.079,1.831 15.405,5.491 3.327,3.658 4.99,9.307 4.99,16.944 v 38.273 h -17.614 v -37.101 c 0,-2.314 -0.276,-3.921 -0.827,-4.816 -0.55,-0.897 -1.532,-1.345 -2.953,-1.345 -2.748,0 -4.12,2.051 -4.12,6.161 v 7.375 h 5.075 z"
   id="a"
   inkscape:connector-curvature="0"
   style="fill:#ffffff;fill-opacity:1" />
	<path
   d="m 709.366,330.049 v -38.445 c 0,-6.741 2.019,-12.137 6.053,-16.186 4.039,-4.052 9.413,-6.078 16.124,-6.078 6.679,0 11.793,1.968 15.341,5.902 3.542,3.937 5.313,9.59 5.313,16.969 v 37.838 h -17.618 v -37.838 c 0,-3.618 -1.286,-5.424 -3.86,-5.424 -2.49,0 -3.732,1.806 -3.732,5.424 v 37.838 z"
   id="n"
   inkscape:connector-curvature="0"
   style="fill:#ffffff;fill-opacity:1" />
	<path
   d="m 756.971,334.564 h 44.435 v 9.284 h -44.435 z"
   id="guion"
   inkscape:connector-curvature="0"
   style="fill:#ffffff;fill-opacity:1" />
</g>
</svg>